<?xml version="1.0" encoding="utf-8"?>
<!-- Generator: Adobe Illustrator 16.0.0, SVG Export Plug-In . SVG Version: 6.00 Build 0)  -->
<!DOCTYPE svg PUBLIC "-//W3C//DTD SVG 1.1//EN" "http://www.w3.org/Graphics/SVG/1.1/DTD/svg11.dtd">
<svg version="1.1" id="Capa_1" xmlns="http://www.w3.org/2000/svg" xmlns:xlink="http://www.w3.org/1999/xlink" x="0px" y="0px"
	 width="138.667px" height="142.666px" viewBox="0 0 138.667 142.666" enable-background="new 0 0 138.667 142.666"
	 xml:space="preserve">
<path fill="#002D42" d="M111.354,29.395c-0.383-0.196-0.828-0.231-1.236-0.1c-0.41,0.132-0.75,0.423-0.945,0.806l-3.115,6.093
	l-13.074,5.299c-5.97-12.876-19.63-20.362-33.695-18.466c-14.064,1.896-25.254,12.732-27.602,26.729
	c-2.347,13.997,4.697,27.89,17.375,34.271v5.61c0.01,2.655,1.768,4.987,4.32,5.727l-7.479,22.433
	c-0.281,0.85,0.178,1.769,1.027,2.052c0.85,0.281,1.768-0.179,2.051-1.028l7.728-23.189h5.311v22.679
	c0,0.895,0.726,1.618,1.62,1.618s1.619-0.724,1.619-1.618V95.63h5.313l7.729,23.189c0.283,0.85,1.201,1.31,2.052,1.028
	c0.85-0.283,1.31-1.202,1.026-2.051l-7.48-22.434c2.551-0.738,4.312-3.071,4.321-5.726v-5.611
	c14.533-7.262,21.386-24.21,15.985-39.534l13.16-5.334l6.141,1.361c0.114,0.023,0.231,0.035,0.349,0.037
	c0.829,0.002,1.524-0.623,1.613-1.445c0.09-0.823-0.456-1.581-1.265-1.757l-4.583-1.009l2.431-4.767
	c0.197-0.381,0.236-0.827,0.105-1.237C112.023,29.933,111.735,29.591,111.354,29.395z M74.977,89.638
	c0,1.521-1.231,2.753-2.753,2.753h-17.17c-0.73,0-1.431-0.29-1.947-0.806c-0.517-0.517-0.807-1.218-0.807-1.947v-4.193
	c7.303,2.784,15.374,2.784,22.677,0V89.638z M92.796,55.135C92.85,70.057,81.668,82.63,66.843,84.318
	c-14.826,1.688-28.548-8.05-31.85-22.603c-3.302-14.552,4.875-29.257,18.979-34.132c14.104-4.876,29.616,1.643,36.005,15.127
	l-7.512,3.045c-5.002-9.834-16.877-13.964-26.9-9.354c-10.024,4.609-14.619,16.312-10.408,26.51
	c4.211,10.197,15.723,15.25,26.078,11.444C81.592,70.552,87.094,59.247,83.7,48.75l7.501-3.041
	C92.251,48.741,92.79,51.927,92.796,55.135z M62.137,55.743c0.337,0.828,1.278,1.227,2.106,0.893l5.786-2.345
	c0.049,0.278,0.078,0.561,0.088,0.844c0.029,3.214-2.282,5.975-5.452,6.508c-3.17,0.534-6.258-1.314-7.284-4.362
	c-1.025-3.047,0.315-6.387,3.163-7.879s6.357-0.693,8.278,1.885l-5.791,2.347c-0.398,0.162-0.717,0.474-0.885,0.87
	S61.975,55.345,62.137,55.743z M63.639,45.416c-4.142-0.013-7.84,2.595-9.219,6.501c-1.381,3.905-0.141,8.256,3.09,10.85
	c3.229,2.592,7.745,2.861,11.26,0.67c3.515-2.192,5.261-6.366,4.354-10.407l7.564-3.066c2.818,9.159-2.07,18.917-11.093,22.145
	c-9.022,3.229-18.99-1.212-22.624-10.08s0.352-19.024,9.048-23.057c8.694-4.03,19.021-0.508,23.441,7.995l-7.56,3.072
	C70.133,47.17,67.008,45.422,63.639,45.416z"/>
</svg>
