<?xml version="1.0" encoding="utf-8"?>
<!-- Generator: Adobe Illustrator 16.0.0, SVG Export Plug-In . SVG Version: 6.00 Build 0)  -->
<!DOCTYPE svg PUBLIC "-//W3C//DTD SVG 1.1//EN" "http://www.w3.org/Graphics/SVG/1.1/DTD/svg11.dtd">
<svg version="1.1" id="Capa_1" xmlns="http://www.w3.org/2000/svg" xmlns:xlink="http://www.w3.org/1999/xlink" x="0px" y="0px"
	 width="138.667px" height="142.666px" viewBox="0 0 138.667 142.666" enable-background="new 0 0 138.667 142.666"
	 xml:space="preserve">
<g>
	<path fill="#002D42" d="M51.629,75.763c-7.332,0-13.277,5.945-13.277,13.278s5.945,13.277,13.277,13.277
		c7.334,0,13.279-5.944,13.279-13.277C64.898,81.711,58.959,75.771,51.629,75.763z M47.203,98.358v-0.376
		c-0.021-2.468,1.959-4.487,4.426-4.516c1.18-0.002,2.309,0.482,3.118,1.339c0.837,0.846,1.308,1.987,1.308,3.177v0.376
		C53.259,99.706,50,99.706,47.203,98.358z M48.679,87.565c0-1.629,1.321-2.95,2.95-2.95c1.63,0,2.951,1.321,2.951,2.95
		c0,1.63-1.321,2.951-2.951,2.951C50.001,90.514,48.681,89.194,48.679,87.565z M58.831,96.429c-0.292-1.394-0.979-2.675-1.978-3.689
		c-0.34-0.353-0.713-0.672-1.116-0.95c1.726-1.673,2.263-4.226,1.361-6.452c-0.903-2.229-3.065-3.686-5.469-3.687
		c-2.403,0-4.565,1.457-5.47,3.685c-0.902,2.226-0.365,4.779,1.359,6.451c-1.592,1.089-2.702,2.75-3.1,4.636
		c-3.009-2.933-3.94-7.397-2.357-11.289c1.585-3.892,5.369-6.437,9.571-6.435c4.201,0.003,7.983,2.55,9.564,6.442
		C62.779,89.035,61.844,93.497,58.831,96.429L58.831,96.429z"/>
	<path fill="#002D42" d="M87.037,40.354c-7.332,0-13.277,5.945-13.277,13.278s5.945,13.278,13.277,13.278
		c7.333,0,13.278-5.945,13.278-13.278C100.308,46.304,94.367,40.363,87.037,40.354z M82.611,62.949v-0.376
		c-0.021-2.467,1.959-4.486,4.426-4.514c1.18-0.003,2.309,0.481,3.117,1.338c0.838,0.846,1.308,1.986,1.309,3.176v0.376
		C88.667,64.298,85.408,64.298,82.611,62.949z M84.087,52.158c0-1.63,1.321-2.951,2.95-2.951c1.631,0,2.951,1.321,2.951,2.951
		c0,1.629-1.32,2.95-2.951,2.95C85.408,55.106,84.089,53.786,84.087,52.158z M94.24,61.021c-0.293-1.394-0.979-2.674-1.979-3.688
		c-0.34-0.354-0.713-0.672-1.117-0.951c1.727-1.673,2.265-4.225,1.361-6.452c-0.901-2.228-3.064-3.685-5.467-3.686
		c-2.404,0-4.566,1.457-5.471,3.683c-0.903,2.228-0.365,4.779,1.359,6.453c-1.592,1.088-2.702,2.749-3.1,4.635
		c-3.009-2.933-3.941-7.397-2.357-11.289c1.585-3.892,5.369-6.436,9.57-6.435c4.202,0.003,7.984,2.551,9.564,6.443
		C98.188,53.627,97.251,58.09,94.24,61.021L94.24,61.021z"/>
	<path fill="#002D42" d="M112.658,50.525l-5.959-2.706c-0.409-1.377-0.963-2.707-1.65-3.968l2.304-6.139
		c0.186-0.497,0.091-1.056-0.25-1.464c-0.401-0.48-0.834-0.94-1.289-1.396c-0.452-0.452-0.913-0.886-1.392-1.286
		c-0.408-0.341-0.969-0.436-1.465-0.249l-6.139,2.305c-1.26-0.689-2.59-1.243-3.966-1.652l-2.708-5.959
		c-0.219-0.484-0.682-0.812-1.211-0.859c-1.262-0.111-2.531-0.111-3.792,0c-0.528,0.048-0.991,0.375-1.212,0.859l-2.707,5.959
		c-1.377,0.409-2.706,0.964-3.967,1.652l-6.138-2.305c-0.497-0.187-1.057-0.092-1.465,0.249c-0.479,0.401-0.939,0.834-1.394,1.287
		c-0.453,0.455-0.886,0.914-1.287,1.395c-0.341,0.408-0.436,0.967-0.25,1.464l2.304,6.139c-0.688,1.262-1.241,2.591-1.651,3.968
		l-5.959,2.706c-0.483,0.22-0.813,0.683-0.859,1.212c-0.057,0.623-0.075,1.255-0.075,1.896c0,0.641,0.019,1.273,0.075,1.896
		c0.047,0.529,0.376,0.992,0.859,1.212l5.959,2.706c0.41,1.377,0.963,2.706,1.651,3.968l-2.078,5.537l-5.538,2.079
		c-1.26-0.688-2.59-1.242-3.966-1.651l-2.708-5.96c-0.219-0.483-0.682-0.813-1.211-0.859c-1.262-0.111-2.53-0.111-3.792,0
		c-0.529,0.047-0.992,0.376-1.212,0.859l-2.707,5.96c-1.377,0.409-2.707,0.963-3.967,1.651l-6.137-2.305
		c-0.498-0.187-1.059-0.093-1.467,0.249c-0.478,0.4-0.938,0.834-1.393,1.288c-0.453,0.453-0.886,0.914-1.288,1.394
		c-0.339,0.407-0.435,0.967-0.249,1.465l2.304,6.138c-0.688,1.261-1.241,2.592-1.651,3.968l-5.959,2.705
		c-0.483,0.221-0.812,0.683-0.859,1.212c-0.057,0.622-0.075,1.255-0.075,1.896c0,0.641,0.019,1.273,0.075,1.896
		c0.048,0.529,0.376,0.993,0.859,1.212l5.96,2.706c0.409,1.378,0.962,2.707,1.65,3.968l-2.304,6.139
		c-0.186,0.498-0.09,1.057,0.25,1.464c0.401,0.48,0.834,0.94,1.289,1.395c0.452,0.453,0.914,0.887,1.392,1.288
		c0.408,0.34,0.968,0.435,1.466,0.249l6.137-2.305c1.26,0.688,2.59,1.241,3.967,1.652l2.707,5.959
		c0.22,0.483,0.684,0.812,1.212,0.859c0.624,0.055,1.255,0.074,1.896,0.074c0.643,0,1.272-0.02,1.896-0.074
		c0.529-0.048,0.992-0.376,1.212-0.859l2.707-5.959c1.377-0.411,2.706-0.964,3.966-1.652l6.139,2.305
		c0.498,0.186,1.057,0.091,1.465-0.249c0.479-0.401,0.939-0.835,1.394-1.288c0.454-0.454,0.886-0.914,1.288-1.395
		c0.34-0.407,0.436-0.966,0.249-1.464l-2.304-6.139c0.688-1.261,1.241-2.591,1.651-3.968l5.959-2.706
		c0.483-0.219,0.812-0.683,0.86-1.212c0.056-0.622,0.074-1.255,0.074-1.896c0-0.642-0.019-1.274-0.074-1.896
		c-0.048-0.529-0.377-0.991-0.86-1.212l-5.959-2.706c-0.409-1.377-0.963-2.706-1.651-3.967l2.078-5.538l5.538-2.079
		c1.261,0.689,2.589,1.243,3.966,1.652l2.707,5.959c0.221,0.484,0.684,0.813,1.212,0.86c0.624,0.055,1.255,0.074,1.896,0.074
		c0.641,0,1.272-0.02,1.896-0.074c0.529-0.048,0.992-0.376,1.212-0.86l2.708-5.959c1.376-0.409,2.705-0.963,3.966-1.652l6.138,2.306
		c0.498,0.186,1.057,0.091,1.465-0.249c0.479-0.401,0.939-0.835,1.394-1.289c0.454-0.453,0.886-0.913,1.288-1.394
		c0.34-0.407,0.436-0.966,0.25-1.464l-2.305-6.139c0.688-1.261,1.242-2.591,1.651-3.967l5.959-2.707
		c0.483-0.22,0.813-0.683,0.86-1.211c0.057-0.623,0.074-1.256,0.074-1.896s-0.018-1.273-0.074-1.896
		C113.471,51.207,113.143,50.745,112.658,50.525z M75.222,88.253c0.011,0.261,0.013,0.523,0.013,0.788s-0.002,0.527-0.013,0.788
		l-5.777,2.625c-0.407,0.185-0.708,0.543-0.819,0.974c-0.411,1.586-1.044,3.106-1.879,4.516c-0.227,0.385-0.268,0.851-0.111,1.269
		l2.234,5.954c-0.178,0.19-0.361,0.379-0.547,0.565c-0.189,0.188-0.378,0.37-0.568,0.549l-5.953-2.233
		c-0.418-0.159-0.885-0.118-1.27,0.11c-1.409,0.836-2.929,1.469-4.516,1.88c-0.432,0.112-0.789,0.413-0.974,0.818l-2.624,5.779
		c-0.523,0.017-1.055,0.017-1.578,0l-2.623-5.779c-0.186-0.405-0.543-0.706-0.975-0.818c-1.586-0.411-3.105-1.044-4.516-1.88
		c-0.384-0.229-0.852-0.269-1.27-0.11l-5.953,2.233c-0.189-0.177-0.379-0.36-0.566-0.547c-0.187-0.188-0.37-0.376-0.549-0.567
		l2.234-5.954c0.157-0.418,0.116-0.884-0.11-1.269c-0.835-1.409-1.468-2.93-1.879-4.516c-0.112-0.433-0.413-0.789-0.819-0.974
		l-5.778-2.625c-0.01-0.261-0.013-0.523-0.013-0.788s0.003-0.527,0.013-0.788l5.778-2.624c0.406-0.185,0.707-0.543,0.819-0.975
		c0.41-1.586,1.044-3.106,1.879-4.517c0.227-0.383,0.268-0.851,0.11-1.268l-2.234-5.955c0.179-0.189,0.361-0.378,0.548-0.564
		c0.188-0.187,0.378-0.371,0.567-0.55l5.953,2.235c0.419,0.156,0.885,0.115,1.27-0.111c1.41-0.836,2.93-1.47,4.516-1.881
		c0.432-0.11,0.789-0.412,0.975-0.817l2.623-5.778c0.523-0.018,1.055-0.018,1.578,0l2.624,5.778
		c0.185,0.405,0.542,0.707,0.974,0.817c1.587,0.411,3.106,1.045,4.516,1.881c0.385,0.228,0.852,0.269,1.27,0.111l5.91-2.22
		c0.186,0.197,0.356,0.401,0.551,0.595c0.191,0.193,0.395,0.363,0.591,0.548l-2.218,5.911c-0.156,0.417-0.116,0.885,0.111,1.268
		c0.835,1.41,1.468,2.931,1.879,4.517c0.111,0.432,0.412,0.79,0.819,0.975L75.222,88.253z M110.63,54.421l-5.778,2.624
		c-0.405,0.186-0.707,0.543-0.819,0.975c-0.41,1.587-1.043,3.106-1.879,4.516c-0.227,0.385-0.267,0.851-0.11,1.27l2.234,5.954
		c-0.179,0.19-0.361,0.379-0.547,0.565c-0.189,0.187-0.378,0.37-0.568,0.549l-5.953-2.234c-0.418-0.158-0.885-0.117-1.27,0.11
		c-1.408,0.836-2.93,1.469-4.516,1.881c-0.431,0.111-0.789,0.412-0.973,0.818l-2.625,5.778c-0.523,0.018-1.054,0.018-1.578,0
		l-2.624-5.778c-0.185-0.406-0.542-0.707-0.974-0.818c-1.586-0.412-3.106-1.045-4.516-1.881c-0.385-0.227-0.852-0.268-1.27-0.11
		l-5.91,2.218c-0.186-0.197-0.355-0.4-0.55-0.595c-0.192-0.192-0.396-0.362-0.592-0.547l2.219-5.91
		c0.155-0.419,0.116-0.885-0.111-1.27c-0.836-1.409-1.468-2.929-1.879-4.516c-0.112-0.432-0.413-0.789-0.819-0.975l-5.777-2.624
		c-0.011-0.26-0.014-0.523-0.014-0.788c0-0.264,0.003-0.526,0.014-0.787l5.777-2.625c0.406-0.185,0.707-0.543,0.819-0.975
		c0.41-1.586,1.043-3.106,1.879-4.516c0.227-0.384,0.267-0.851,0.111-1.269l-2.235-5.954c0.179-0.19,0.361-0.379,0.548-0.565
		c0.188-0.187,0.377-0.371,0.567-0.55l5.953,2.235c0.418,0.158,0.885,0.116,1.27-0.111c1.409-0.836,2.93-1.469,4.516-1.88
		c0.432-0.111,0.789-0.412,0.974-0.818l2.624-5.778c0.524-0.018,1.055-0.018,1.578,0l2.625,5.778
		c0.184,0.406,0.542,0.707,0.973,0.818c1.586,0.411,3.106,1.044,4.516,1.88c0.385,0.229,0.852,0.27,1.27,0.111l5.953-2.235
		c0.19,0.179,0.379,0.362,0.566,0.549s0.37,0.375,0.549,0.566l-2.234,5.954c-0.156,0.418-0.116,0.885,0.11,1.269
		c0.836,1.409,1.469,2.93,1.879,4.516c0.112,0.432,0.414,0.79,0.819,0.975l5.778,2.625c0.01,0.261,0.013,0.523,0.013,0.787
		C110.643,53.897,110.64,54.161,110.63,54.421z"/>
</g>
</svg>
