<?xml version="1.0" encoding="utf-8"?>
<!-- Generator: Adobe Illustrator 16.0.0, SVG Export Plug-In . SVG Version: 6.00 Build 0)  -->
<!DOCTYPE svg PUBLIC "-//W3C//DTD SVG 1.1//EN" "http://www.w3.org/Graphics/SVG/1.1/DTD/svg11.dtd">
<svg version="1.1" id="Capa_1" xmlns="http://www.w3.org/2000/svg" xmlns:xlink="http://www.w3.org/1999/xlink" x="0px" y="0px"
	 width="138.667px" height="142.666px" viewBox="0 0 138.667 142.666" enable-background="new 0 0 138.667 142.666"
	 xml:space="preserve">
<g>
	<polygon fill="#002D42" points="30.669,31.352 30.669,51.159 30.669,55.73 27.622,55.73 27.622,51.159 27.622,31.352 	"/>
	<g>
		<path fill="#002D42" d="M52.001,34.398H36.764c-0.842,0-1.524,0.683-1.524,1.524c0,0.841,0.683,1.523,1.524,1.523h15.237
			c0.841,0,1.523-0.683,1.523-1.523C53.524,35.081,52.842,34.398,52.001,34.398z"/>
		<path fill="#002D42" d="M76.38,37.446c0.841,0,1.523-0.683,1.523-1.523c0-0.842-0.683-1.524-1.523-1.524H58.095
			c-0.841,0-1.523,0.683-1.523,1.524c0,0.841,0.683,1.523,1.523,1.523H76.38z"/>
		<path fill="#002D42" d="M36.764,52.684h15.237c0.841,0,1.523-0.683,1.523-1.524c0-0.841-0.683-1.523-1.523-1.523H36.764
			c-0.842,0-1.524,0.683-1.524,1.523C35.239,52.001,35.922,52.684,36.764,52.684z"/>
		<path fill="#002D42" d="M76.38,49.636H58.095c-0.841,0-1.523,0.683-1.523,1.523c0,0.842,0.683,1.524,1.523,1.524H76.38
			c0.841,0,1.523-0.683,1.523-1.524C77.903,50.318,77.221,49.636,76.38,49.636z"/>
		<path fill="#002D42" d="M47.429,43.541c0,0.404,0.161,0.791,0.447,1.077c0.285,0.286,0.674,0.446,1.077,0.446H76.38
			c0.841,0,1.523-0.682,1.523-1.523s-0.683-1.523-1.523-1.523H48.953c-0.403,0-0.792,0.16-1.077,0.446
			C47.59,42.749,47.429,43.137,47.429,43.541z"/>
		<path fill="#002D42" d="M109.901,38.97H91.617c-0.842,0-1.524,0.683-1.524,1.524c0,0.841,0.683,1.523,1.524,1.523h18.284
			c0.841,0,1.523-0.683,1.523-1.523C111.425,39.652,110.742,38.97,109.901,38.97z"/>
		<path fill="#002D42" d="M109.901,54.207H91.617c-0.842,0-1.524,0.682-1.524,1.523s0.683,1.523,1.524,1.523h18.284
			c0.841,0,1.523-0.682,1.523-1.523S110.742,54.207,109.901,54.207z"/>
		<path fill="#002D42" d="M109.901,46.588H91.617c-0.842,0-1.524,0.683-1.524,1.524c0,0.841,0.683,1.523,1.524,1.523h18.284
			c0.841,0,1.523-0.683,1.523-1.523C111.425,47.271,110.742,46.588,109.901,46.588z"/>
		<path fill="#002D42" d="M36.764,45.064h6.095c0.842,0,1.523-0.682,1.523-1.523s-0.682-1.523-1.523-1.523h-6.095
			c-0.842,0-1.524,0.682-1.524,1.523S35.922,45.064,36.764,45.064z"/>
		<path fill="#002D42" d="M115.67,107.992l-8.359-4.658v-1.529c1.088-1.354,1.919-2.896,2.453-4.549
			c0.051-0.247,0.174-0.474,0.355-0.648c0.829-0.797,1.301-1.896,1.306-3.047v-2.603c-0.001-0.675-0.164-1.34-0.475-1.938
			l-0.156-0.297c-0.086-0.165-0.13-0.347-0.131-0.531v-3.746c-0.07-4.14-3.479-7.442-7.619-7.383h-4.571
			c-4.14-0.06-7.547,3.243-7.618,7.383v3.746c0,0.184-0.044,0.363-0.13,0.526l-0.158,0.307c-0.309,0.598-0.473,1.26-0.474,1.933
			v2.604c0.007,1.151,0.479,2.252,1.31,3.049c0.18,0.176,0.301,0.4,0.352,0.646c0.534,1.652,1.366,3.194,2.453,4.549v1.529
			l-8.382,4.672c-2.054,1.172-3.331,3.348-3.351,5.713v2.96c0,0.404,0.16,0.791,0.446,1.077s0.674,0.446,1.077,0.446h33.521
			c0.404,0,0.792-0.16,1.077-0.446c0.286-0.286,0.446-0.673,0.446-1.077v-2.96C119.021,111.345,117.735,109.163,115.67,107.992z
			 M93.513,94.411c-0.235-0.221-0.37-0.528-0.372-0.851v-2.604c0.001-0.184,0.045-0.363,0.129-0.526l0.16-0.307
			c0.31-0.598,0.471-1.261,0.473-1.933v-3.746c0.068-2.457,2.113-4.396,4.57-4.336h4.571c2.459-0.061,4.502,1.879,4.571,4.336v3.746
			c0.003,0.674,0.166,1.338,0.476,1.937l0.155,0.298c0.086,0.164,0.13,0.346,0.131,0.531v2.604
			c-0.002,0.323-0.137,0.631-0.371,0.851c-0.621,0.599-1.048,1.369-1.224,2.214c-0.477,1.306-1.18,2.518-2.078,3.578
			c-0.286,0.384-0.44,0.848-0.44,1.326v1.871l-3.505,3.505l-3.505-3.505v-1.871c-0.001-0.484-0.159-0.955-0.451-1.343
			c-0.894-1.056-1.594-2.262-2.067-3.562C94.561,95.78,94.133,95.009,93.513,94.411L93.513,94.411z M85.521,113.719
			c0.009-1.272,0.699-2.441,1.809-3.063l8.265-4.604l3.641,3.641v5.463H85.521V113.719z M115.996,115.154h-13.714v-5.463
			l3.641-3.641l8.243,4.592c1.12,0.619,1.819,1.796,1.83,3.076V115.154z"/>
		<path fill="#002D42" d="M29.146,118.202h30.474c0.404,0,0.792-0.16,1.077-0.446s0.446-0.673,0.446-1.077v-1.81
			c-0.003-1.627-0.608-3.195-1.697-4.402c-1.019-1.029-2.19-1.894-3.476-2.56c-0.332-0.193-0.661-0.386-0.978-0.582
			c-0.687-0.427-1.481-0.87-2.288-1.313h4.681c1.134,0.003,2.177-0.629,2.698-1.637c0.51-0.97,0.435-2.142-0.195-3.038
			c-2.039-3.156-3.479-6.66-4.25-10.337c-0.199-0.951-0.301-1.921-0.299-2.892c0.008-2.924-1.145-5.73-3.206-7.805
			c-2.046-2.074-4.837-3.242-7.751-3.242c-2.912,0-5.705,1.168-7.75,3.242c-2.061,2.074-3.215,4.881-3.205,7.805
			c0.001,0.969-0.1,1.936-0.3,2.884c-0.769,3.679-2.211,7.185-4.251,10.341c-0.631,0.896-0.708,2.07-0.199,3.042
			c0.521,1.008,1.563,1.64,2.699,1.637h4.79c-0.269,0.154-0.54,0.309-0.809,0.463c-1.148,0.657-2.296,1.313-3.325,1.938
			c-1.091,0.661-4.41,2.673-4.41,6.456v1.81c0,0.404,0.16,0.791,0.445,1.077C28.354,118.041,28.741,118.202,29.146,118.202z
			 M31.37,103.084c2.271-3.491,3.878-7.373,4.737-11.45c0.244-1.159,0.366-2.34,0.366-3.524c-0.007-2.12,0.829-4.156,2.324-5.659
			c1.473-1.498,3.484-2.341,5.584-2.341s4.113,0.843,5.586,2.341c1.493,1.503,2.33,3.539,2.323,5.659
			c-0.001,1.187,0.122,2.371,0.368,3.531c0.842,4.041,2.445,7.884,4.726,11.324h-7.702c-0.577-0.029-1.141,0.179-1.559,0.576
			c-0.42,0.397-0.659,0.948-0.66,1.526c-0.016,0.055-0.026,0.111-0.035,0.169v0.776c-0.101,1.225-1.166,2.14-2.393,2.057h-1.309
			c-1.227,0.084-2.292-0.832-2.393-2.057v-0.776c-0.008-0.056-0.02-0.111-0.033-0.165c-0.002-0.579-0.24-1.131-0.658-1.528
			c-0.421-0.398-0.984-0.607-1.561-0.578L31.37,103.084z M30.669,114.869c0-1.43,0.908-2.617,2.943-3.85
			c1.008-0.611,2.133-1.254,3.258-1.898c0.633-0.361,1.259-0.722,1.872-1.079c0.926,1.905,2.868,3.103,4.985,3.074h1.309
			c2.128,0.028,4.078-1.179,4.999-3.096c0.28,0.155,0.56,0.311,0.845,0.467c0.875,0.479,1.756,0.961,2.5,1.424
			c0.341,0.213,0.697,0.42,1.055,0.628c1.006,0.514,1.93,1.175,2.742,1.961c0.588,0.649,0.915,1.493,0.918,2.369v0.285H30.669
			V114.869L30.669,114.869z"/>
		<path fill="#002D42" d="M29.146,45.064c0.402-0.006,0.789-0.164,1.082-0.441c0.589-0.602,0.589-1.563,0-2.164l-0.229-0.183
			c-0.085-0.058-0.178-0.104-0.275-0.138c-0.086-0.044-0.179-0.075-0.273-0.091c-0.102-0.018-0.203-0.027-0.305-0.03
			c-0.404,0.005-0.789,0.163-1.082,0.441c-0.575,0.606-0.575,1.557,0,2.163c0.146,0.138,0.316,0.247,0.502,0.32
			C28.749,45.021,28.946,45.063,29.146,45.064z"/>
		<path fill="#002D42" d="M114.472,32.875h-28.95v-1.523c-0.002-2.523-2.047-4.568-4.57-4.571H32.192
			c-2.523,0.003-4.568,2.048-4.57,4.571v6.095c0,0.842,0.682,1.523,1.523,1.523c0.841,0,1.523-0.682,1.523-1.523v-6.095
			c0.001-0.842,0.682-1.523,1.523-1.523h48.759c0.842,0,1.523,0.682,1.523,1.523V55.73c0,0.842-0.682,1.523-1.523,1.523H55.048
			c-0.316,0-0.627,0.1-0.885,0.285l-8.258,5.896v-4.657c0-0.404-0.159-0.792-0.445-1.077c-0.286-0.287-0.674-0.447-1.078-0.447
			H32.192c-0.842,0-1.522-0.682-1.523-1.523v-6.095c0-0.842-0.683-1.523-1.523-1.523s-1.523,0.682-1.523,1.523v6.095
			c0.002,2.523,2.047,4.568,4.57,4.571h10.666v6.095c0,0.57,0.318,1.094,0.826,1.354c0.508,0.262,1.119,0.217,1.583-0.115
			l10.269-7.334h5.606v1.523c0.003,2.523,2.048,4.569,4.571,4.571h25.415l10.268,7.334c0.259,0.186,0.568,0.284,0.886,0.284
			c0.243,0,0.482-0.058,0.698-0.167c0.508-0.263,0.825-0.785,0.825-1.356v-6.095h10.666c2.524-0.002,4.569-2.048,4.571-4.571V37.446
			C119.041,34.923,116.996,32.877,114.472,32.875z M115.996,61.825c0,0.842-0.683,1.523-1.524,1.524h-12.189
			c-0.403,0-0.791,0.159-1.077,0.445c-0.285,0.286-0.446,0.674-0.446,1.078v4.657l-8.257-5.896
			c-0.258-0.186-0.567-0.284-0.885-0.284H65.714c-0.842-0.001-1.522-0.684-1.523-1.524v-1.523h16.761
			c2.523-0.003,4.568-2.048,4.57-4.571V35.923h28.95c0.842,0,1.524,0.682,1.524,1.523V61.825z"/>
	</g>
</g>
</svg>
