<?xml version="1.0" encoding="utf-8"?>
<!-- Generator: Adobe Illustrator 16.0.0, SVG Export Plug-In . SVG Version: 6.00 Build 0)  -->
<!DOCTYPE svg PUBLIC "-//W3C//DTD SVG 1.1//EN" "http://www.w3.org/Graphics/SVG/1.1/DTD/svg11.dtd">
<svg version="1.1" id="Capa_1" xmlns="http://www.w3.org/2000/svg" xmlns:xlink="http://www.w3.org/1999/xlink" x="0px" y="0px"
	 width="134.667px" height="141.333px" viewBox="0 0 134.667 141.333" enable-background="new 0 0 134.667 141.333"
	 xml:space="preserve">
<path fill="#002D42" d="M57.26,51.996l-7.331-1.832v-1.131c2.184-1.492,3.487-3.97,3.481-6.615V32.381
	c0-5.77-4.674-10.446-10.441-10.446c-5.768,0-10.443,4.677-10.443,10.446V42.41c-0.008,2.648,1.295,5.129,3.48,6.623v1.131
	l-7.329,1.832c-3.877,0.963-6.597,4.447-6.594,8.443v11.967h3.48V60.439c0-2.396,1.631-4.486,3.955-5.068l8.649-2.16
	c0.776-0.193,1.318-0.89,1.321-1.689v-3.48c0-0.658-0.374-1.262-0.964-1.559c-1.547-0.766-2.523-2.344-2.519-4.072V32.381
	c0-3.848,3.117-6.967,6.963-6.967c3.844,0,6.96,3.119,6.96,6.967V42.41c0.007,1.729-0.97,3.307-2.518,4.072
	c-0.591,0.297-0.964,0.9-0.963,1.559v3.48c0,0.8,0.544,1.496,1.319,1.689l8.649,2.16c2.324,0.582,3.954,2.673,3.954,5.068v11.967
	h3.48V60.439C63.857,56.443,61.137,52.959,57.26,51.996z"/>
<path fill="#002D42" d="M29.044,63.705h3.481v12.182h-3.481V63.705z"/>
<path fill="#002D42" d="M53.41,63.705h3.481v12.182H53.41V63.705z"/>
<path fill="#002D42" d="M110.842,28.898H79.516c-0.962,0-1.74,0.777-1.74,1.738v3.483h-6.961v3.48h6.961v3.479
	c0,0.961,0.778,1.74,1.74,1.74h31.326c0.962,0,1.741-0.779,1.741-1.74V30.637C112.583,29.676,111.804,28.898,110.842,28.898z
	 M81.256,32.381h6.961v6.96h-6.961V32.381z M109.103,39.341H91.699v-6.96h17.404V39.341z"/>
<path fill="#002D42" d="M110.842,49.781H79.516c-0.962,0-1.74,0.779-1.74,1.74v3.482h-6.961v3.481h6.961v3.479
	c0,0.96,0.778,1.74,1.74,1.74h31.326c0.962,0,1.741-0.78,1.741-1.74V51.521C112.583,50.561,111.804,49.781,110.842,49.781z
	 M81.256,53.264h20.885v6.962H81.256V53.264z M109.103,60.226h-3.481v-6.962h3.481V60.226z"/>
<path fill="#002D42" d="M110.842,70.666H79.516c-0.962,0-1.74,0.779-1.74,1.74v3.48h-6.961v3.481h6.961v3.48
	c0,0.962,0.778,1.743,1.74,1.743h31.326c0.962,0,1.741-0.781,1.741-1.743V72.406C112.583,71.445,111.804,70.666,110.842,70.666z
	 M81.256,74.146H95.18v6.965H81.256V74.146z M109.103,81.111H98.66v-6.965h10.443V81.111z"/>
<path fill="#002D42" d="M110.842,91.553H79.516c-0.962,0-1.74,0.777-1.74,1.738v3.48h-6.961v3.48h6.961v3.482
	c0,0.96,0.778,1.74,1.74,1.74h31.326c0.962,0,1.741-0.78,1.741-1.74V93.291C112.583,92.33,111.804,91.553,110.842,91.553z
	 M81.256,95.033h6.961v6.962h-6.961V95.033z M109.103,101.995H91.699v-6.962h17.404V101.995z"/>
<path fill="#002D42" d="M36.005,88.072h3.48v3.48h-3.48V88.072z"/>
<path fill="#002D42" d="M42.969,88.072h13.922v3.48H42.969V88.072z"/>
<path fill="#002D42" d="M29.044,95.033h27.847v3.48H29.044V95.033z"/>
<path fill="#002D42" d="M29.044,101.995h20.885v3.479H29.044V101.995z"/>
<path fill="#002D42" d="M62.112,81.111H48.91l-4.712-4.713c-0.679-0.68-1.782-0.68-2.46,0l-4.71,4.713H23.824
	c-0.961,0-1.741,0.776-1.741,1.737v27.847c0,0.961,0.779,1.742,1.741,1.742h38.288c0.962,0,1.74-0.781,1.74-1.742V82.849
	C63.852,81.888,63.074,81.111,62.112,81.111z M60.372,108.955H25.563V84.589h12.185c0.461,0,0.904-0.184,1.229-0.509l3.991-3.99
	l3.991,3.99c0.326,0.325,0.769,0.509,1.23,0.509h12.183V108.955z"/>
<path fill="#002D42" d="M18.603,112.438v-5.223h-3.48v5.223c0,3.844,3.116,6.961,6.96,6.961h24.366v-3.48H22.083
	C20.161,115.918,18.603,114.359,18.603,112.438z"/>
<path fill="#002D42" d="M49.929,115.918h3.481v3.48h-3.481V115.918z"/>
<path fill="#002D42" d="M82.997,108.955h20.885v3.482H82.997V108.955z"/>
<path fill="#002D42" d="M112.583,21.935H93.439v3.479h19.145c1.922,0,3.481,1.559,3.481,3.484v3.482h3.48v-3.482
	C119.544,25.051,116.428,21.935,112.583,21.935z"/>
</svg>
