<?xml version="1.0" encoding="utf-8"?>
<!-- Generator: Adobe Illustrator 16.0.0, SVG Export Plug-In . SVG Version: 6.00 Build 0)  -->
<!DOCTYPE svg PUBLIC "-//W3C//DTD SVG 1.1//EN" "http://www.w3.org/Graphics/SVG/1.1/DTD/svg11.dtd">
<svg version="1.1" id="Capa_1" xmlns="http://www.w3.org/2000/svg" xmlns:xlink="http://www.w3.org/1999/xlink" x="0px" y="0px"
	 width="134.667px" height="141.333px" viewBox="0 0 134.667 141.333" enable-background="new 0 0 134.667 141.333"
	 xml:space="preserve">
<g>
	<path fill="#002D42" d="M60.716,70.244h3.423v15.395h-3.423V70.244z"/>
	<path fill="#002D42" d="M84.664,70.244h3.423v15.395h-3.423V70.244z"/>
	<g>
		<path fill="#002D42" d="M24.794,113.008h13.686c0.943,0,1.709-0.767,1.709-1.712v-0.651l12.771,5.304
			c6.962,2.844,14.746,2.929,21.77,0.24l26.424-10.076c1.565-0.595,2.825-1.796,3.495-3.33c0.691-1.557,0.728-3.326,0.1-4.909
			c-0.513-1.294-1.441-2.378-2.641-3.08c12.62-15.276,10.469-37.89-4.808-50.513c-3.769-3.114-8.134-5.425-12.829-6.79
			c-1.096-5.562-6.49-9.184-12.052-8.088c-4.089,0.804-7.284,3.999-8.09,8.088c-19.025,5.538-29.962,25.453-24.422,44.48
			c0.537,1.845,1.221,3.643,2.045,5.379h-1.764c0-0.945-0.766-1.713-1.709-1.713H24.794c-0.945,0-1.71,0.768-1.71,1.713h-5.132v3.42
			h5.132v17.105h-5.132v3.421h5.132C23.084,112.241,23.849,113.008,24.794,113.008z M64.139,41.123v8.189
			c-0.01,2.604,1.271,5.04,3.419,6.508v1.113l-7.204,1.801c-3.811,0.95-6.482,4.372-6.479,8.297v15.187h3.421V67.031
			c0-2.353,1.602-4.405,3.887-4.977l8.502-2.126c0.762-0.189,1.295-0.875,1.295-1.659v-3.422c0.002-0.648-0.365-1.241-0.946-1.53
			c-1.521-0.753-2.481-2.308-2.475-4.005v-9.86c0-3.778,3.063-6.839,6.843-6.839s6.842,3.061,6.842,6.839v9.86
			c0.008,1.697-0.952,3.252-2.475,4.005c-0.58,0.289-0.947,0.882-0.947,1.53v3.422c0.002,0.784,0.536,1.47,1.298,1.659l8.501,2.126
			c2.285,0.571,3.889,2.624,3.889,4.977v15.187h3.42V67.031c0.004-3.925-2.67-7.347-6.479-8.297l-7.207-1.801V55.82
			c2.147-1.467,3.429-3.9,3.422-6.499v-8.198c17.012,5.64,26.229,24.003,20.588,41.016c-1.456,4.395-3.836,8.426-6.98,11.823
			c-0.592,0.056-1.174,0.202-1.725,0.427l-11.09,4.709c0.031-0.208,0.052-0.42,0.062-0.629c0-3.308-2.679-5.988-5.987-5.988H66.264
			c-1.342-0.001-2.667-0.314-3.867-0.914c-5.168-2.568-10.825-3.995-16.593-4.18c-8.532-15.774-2.66-35.478,13.114-44.007
			C60.588,42.478,62.334,41.722,64.139,41.123z M44.525,90.77c5.672,0.008,11.265,1.328,16.342,3.858
			c1.676,0.835,3.523,1.272,5.396,1.273h13.268c1.418,0.01,2.559,1.167,2.552,2.583c-0.009,1.188-0.83,2.213-1.985,2.482
			c-0.225,0.02-0.444,0.066-0.671,0.066H59.006v3.422h20.421h0.104c0.034,0,0.067-0.011,0.104-0.011
			c1.356-0.021,2.697-0.307,3.947-0.837l14.302-6.069c0.682-0.292,1.451-0.292,2.134,0c0.708,0.298,1.265,0.874,1.539,1.591
			c0.291,0.734,0.273,1.553-0.045,2.273c-0.303,0.699-0.874,1.246-1.586,1.519l-26.426,10.076
			c-6.208,2.377-13.089,2.303-19.245-0.209l-14.067-5.848V90.77H44.525z M26.505,89.06h10.263v20.527H26.505V89.06z"/>
		<path fill="#002D42" d="M91.671,112.714l2.65-1.011l1.218,3.198l-2.649,1.01L91.671,112.714z"/>
		<path fill="#002D42" d="M74.729,122.841l15.675-5.986l-1.219-3.196l-15.676,5.978c-6.21,2.38-13.091,2.304-19.247-0.209
			l-1.442-0.599l-1.313,3.16l1.453,0.604c6.962,2.845,14.746,2.93,21.77,0.242V122.841z"/>
		<path fill="#002D42" d="M103.257,45.213c9.931,10.727,13.104,26.07,8.248,39.857l3.228,1.139
			c5.276-14.988,1.827-31.663-8.965-43.322L103.257,45.213z"/>
		<path fill="#002D42" d="M97.351,39.994c1.049,0.754,2.084,1.581,3.079,2.453l2.262-2.566c-1.076-0.948-2.198-1.844-3.34-2.662
			L97.351,39.994z"/>
		<path fill="#002D42" d="M31.783,68.393l3.411,0.281c0.966-11.997,7.399-22.88,17.446-29.506l-1.894-2.85
			C39.828,43.524,32.836,55.354,31.783,68.393z"/>
	</g>
</g>
</svg>
