<?xml version="1.0" encoding="utf-8"?>
<!-- Generator: Adobe Illustrator 16.0.0, SVG Export Plug-In . SVG Version: 6.00 Build 0)  -->
<!DOCTYPE svg PUBLIC "-//W3C//DTD SVG 1.1//EN" "http://www.w3.org/Graphics/SVG/1.1/DTD/svg11.dtd">
<svg version="1.1" id="Capa_1" xmlns="http://www.w3.org/2000/svg" xmlns:xlink="http://www.w3.org/1999/xlink" x="0px" y="0px"
	 width="134.667px" height="141.333px" viewBox="0 0 134.667 141.333" enable-background="new 0 0 134.667 141.333"
	 xml:space="preserve">
<g>
	<path fill="#002D42" d="M75.417,21.253L67.968,28.7c-0.726,0.728-0.726,1.908,0,2.634l7.449,7.448l2.632-2.634l-3.996-3.994
		c20.053,2.052,36.209,17.352,39.352,37.263l3.677-0.591c-3.448-21.898-21.404-38.612-43.493-40.484l4.469-4.471L75.417,21.253z"/>
	<path fill="#002D42" d="M21.416,77.888c0.727,0.725,1.906,0.725,2.633,0l7.448-7.449l-2.633-2.633L24.869,71.8
		c2.054-20.052,17.352-36.208,37.263-39.351l-0.591-3.677c-21.897,3.448-38.612,21.405-40.483,43.493l-4.469-4.469l-2.621,2.642
		L21.416,77.888z"/>
	<path fill="#002D42" d="M63.154,131.887l7.448-7.451c0.727-0.725,0.727-1.902,0-2.631l-7.448-7.447l-2.635,2.633l3.997,3.995
		c-20.052-2.054-36.208-17.353-39.351-37.263l-3.678,0.592c3.45,21.897,21.405,38.611,43.495,40.483l-4.469,4.47L63.154,131.887z"/>
	<path fill="#002D42" d="M117.153,75.252c-0.728-0.725-1.906-0.725-2.634,0l-7.447,7.449l2.632,2.633l3.997-3.998
		c-2.057,20.057-17.354,36.212-37.265,39.354l0.592,3.677c21.899-3.449,38.611-21.404,40.483-43.494l4.469,4.471l2.633-2.635
		L117.153,75.252z"/>
	<path fill="#002D42" d="M76.252,110.438c0.195,0,0.39-0.028,0.575-0.091l6.208-2.016c0.823-0.268,1.354-1.068,1.28-1.931
		l-0.579-6.848l2.939-2.128l6.33,2.668c0.801,0.34,1.727,0.08,2.235-0.622l3.836-5.291c0.509-0.699,0.468-1.657-0.098-2.312
		l-4.494-5.198l1.118-3.458l6.691-1.565c0.843-0.197,1.438-0.948,1.438-1.813v-6.529c0-0.863-0.595-1.615-1.438-1.813l-6.691-1.565
		l-1.118-3.458l4.494-5.198c0.565-0.654,0.606-1.612,0.098-2.312l-3.837-5.28c-0.509-0.704-1.436-0.962-2.235-0.622l-6.331,2.666
		l-2.939-2.135l0.58-6.85c0.073-0.865-0.459-1.662-1.28-1.93l-6.207-2.018c-0.823-0.267-1.722,0.068-2.169,0.808l-3.555,5.884
		h-3.639l-3.555-5.884c-0.447-0.739-1.345-1.074-2.168-0.808l-6.208,2.018c-0.824,0.268-1.354,1.064-1.28,1.93l0.58,6.85
		l-2.94,2.135l-6.332-2.666c-0.799-0.34-1.725-0.082-2.233,0.622l-3.837,5.28c-0.508,0.699-0.468,1.657,0.099,2.312l4.494,5.198
		l-1.118,3.458l-6.691,1.565c-0.843,0.197-1.439,0.949-1.439,1.813v6.529c0,0.865,0.596,1.616,1.439,1.813l6.691,1.565l1.118,3.458
		l-4.494,5.198c-0.566,0.654-0.607,1.611-0.099,2.312l3.838,5.281c0.509,0.702,1.436,0.962,2.235,0.622l6.33-2.668l2.941,2.138
		l-0.581,6.848c-0.073,0.862,0.458,1.663,1.281,1.931l6.208,2.016c0.822,0.268,1.721-0.068,2.169-0.809l3.553-5.881h3.641
		l3.553,5.881C74.996,110.096,75.602,110.436,76.252,110.438z M72.156,99.934h-5.741c-0.652,0-1.256,0.34-1.593,0.899l-3.336,5.516
		l-3.396-1.102l0.543-6.425c0.056-0.649-0.232-1.279-0.761-1.664l-4.64-3.37c-0.527-0.384-1.217-0.464-1.818-0.21l-5.941,2.502
		l-2.101-2.891l4.215-4.877c0.43-0.49,0.572-1.174,0.372-1.794l-1.772-5.453c-0.201-0.619-0.712-1.091-1.349-1.239l-6.279-1.467
		v-3.578l6.276-1.467c0.636-0.148,1.147-0.617,1.349-1.237l1.771-5.454c0.199-0.621,0.059-1.303-0.372-1.793l-4.216-4.877
		l2.101-2.893l5.94,2.502c0.6,0.256,1.29,0.174,1.816-0.208l4.641-3.372c0.528-0.381,0.817-1.014,0.762-1.666l-0.539-6.424
		l3.396-1.104l3.33,5.518c0.337,0.558,0.94,0.898,1.592,0.9h5.74c0.651-0.002,1.255-0.343,1.592-0.9l3.336-5.514l3.396,1.103
		l-0.535,6.421c-0.055,0.651,0.232,1.285,0.762,1.666l4.641,3.372c0.526,0.382,1.216,0.464,1.816,0.208l5.942-2.502l2.1,2.893
		l-4.216,4.883c-0.429,0.492-0.57,1.176-0.371,1.797l1.771,5.454c0.201,0.618,0.713,1.09,1.349,1.237l6.275,1.466v3.579
		l-6.275,1.465c-0.636,0.147-1.147,0.617-1.349,1.239l-1.771,5.452c-0.199,0.621-0.058,1.303,0.371,1.793l4.216,4.878l-2.1,2.891
		l-5.937-2.511c-0.602-0.255-1.289-0.175-1.818,0.209l-4.64,3.371c-0.528,0.383-0.817,1.014-0.761,1.664l0.543,6.424l-3.396,1.104
		l-3.336-5.516c-0.338-0.562-0.945-0.903-1.598-0.903h0.002V99.934z"/>
	<path fill="#002D42" d="M87.905,76.57c0-10.285-8.337-18.622-18.621-18.622c-10.284,0-18.621,8.337-18.621,18.622
		S59,95.191,69.284,95.191C79.563,95.178,87.893,86.849,87.905,76.57z M69.284,91.468c-8.228,0-14.897-6.67-14.897-14.897
		c0-8.229,6.669-14.898,14.897-14.898s14.897,6.67,14.897,14.898C84.172,84.791,77.508,91.455,69.284,91.468z"/>
	<path fill="#002D42" d="M88.154,129.158c1.232-0.445,2.457-0.932,3.631-1.445l-1.488-3.412c-1.1,0.482-2.234,0.932-3.393,1.348
		L88.154,129.158z"/>
	<path fill="#002D42" d="M93.625,122.693l1.737,3.295c12.677-6.668,22.294-17.968,26.856-31.541l-3.527-1.193
		C114.436,105.926,105.456,116.469,93.625,122.693z"/>
	<path fill="#002D42" d="M50.414,23.983c-1.233,0.444-2.456,0.93-3.631,1.442l1.49,3.41c1.098-0.48,2.233-0.931,3.393-1.348
		L50.414,23.983z"/>
	<path fill="#002D42" d="M44.943,30.446l-1.728-3.295c-12.68,6.667-22.302,17.964-26.866,31.542l3.526,1.193
		C24.134,47.214,33.113,36.672,44.943,30.446z"/>
	<path fill="#002D42" d="M67.421,74.708h3.726v3.724h-3.726V74.708z"/>
	<path fill="#002D42" d="M74.871,74.708h3.723v3.724h-3.723V74.708z"/>
	<path fill="#002D42" d="M59.974,74.708h3.725v3.724h-3.725V74.708z"/>
</g>
</svg>
