<?xml version="1.0" encoding="utf-8"?>
<!-- Generator: Adobe Illustrator 16.0.0, SVG Export Plug-In . SVG Version: 6.00 Build 0)  -->
<!DOCTYPE svg PUBLIC "-//W3C//DTD SVG 1.1//EN" "http://www.w3.org/Graphics/SVG/1.1/DTD/svg11.dtd">
<svg version="1.1" id="Capa_1" xmlns="http://www.w3.org/2000/svg" xmlns:xlink="http://www.w3.org/1999/xlink" x="0px" y="0px"
	 width="138.667px" height="142.666px" viewBox="0 0 138.667 142.666" enable-background="new 0 0 138.667 142.666"
	 xml:space="preserve">
<g>
	<path fill="#002D42" d="M74.934,28.028c-0.539,0.103-1.05,0.321-1.497,0.641c-0.624,0.403-1.209,0.866-1.746,1.381
		c-1.16,1.098-2.236,2.281-3.22,3.539c-2.021,2.562-3.827,5.288-5.396,8.149c-0.858,1.516-1.594,3.097-2.198,4.73
		c-0.581,1.675-1.115,3.413-1.605,5.138c-1.039,3.375-1.726,6.85-2.05,10.366l-3.091-0.124c0.33-3.761,1.055-7.477,2.165-11.086
		c0.508-1.787,1.046-3.54,1.66-5.313c0.659-1.794,1.464-3.531,2.404-5.195c1.654-3.019,3.558-5.893,5.69-8.594
		c1.082-1.383,2.267-2.682,3.543-3.886c0.674-0.644,1.409-1.221,2.193-1.724c0.931-0.646,2.017-1.031,3.146-1.116V28.028
		L74.934,28.028z"/>
	<g>
		<path fill="#002D42" d="M67.012,33.448c-0.069-0.076-0.146-0.147-0.226-0.213c-0.328-0.247-0.74-0.358-1.149-0.309
			c-0.205,0.032-0.4,0.107-0.575,0.221c-0.535,0.34-0.825,0.958-0.744,1.587c0.084,0.401,0.315,0.757,0.646,0.999
			c0.34,0.226,0.75,0.317,1.153,0.259c0.396-0.07,0.751-0.288,0.993-0.609c0.226-0.331,0.323-0.732,0.276-1.13l-0.073-0.283
			c-0.033-0.099-0.079-0.192-0.137-0.278C67.135,33.602,67.079,33.521,67.012,33.448z"/>
		<path fill="#002D42" d="M112.898,27.112h-10.895c-4.408,0.01-8.813-0.266-13.186-0.823c-4.853-0.618-11.199-1.354-13.885-1.354
			l0,0l-0.001,0.001c-0.388,0.042-0.78,0.103-1.164,0.181c-0.329,0.094-0.647,0.217-0.954,0.367c-0.56,0.26-1.093,0.573-1.593,0.937
			c-0.465,0.346-0.889,0.711-1.329,1.069L68.7,28.631c-0.294,0.298-0.455,0.701-0.445,1.119s0.189,0.814,0.497,1.098
			c0.616,0.562,1.564,0.54,2.155-0.05L71.95,29.8c0.36-0.289,0.718-0.6,1.078-0.869c0.561-0.438,1.211-0.747,1.905-0.902
			c1.969,0,6.761,0.471,13.492,1.329c4.504,0.57,9.039,0.853,13.578,0.848h9.348v17.639c-4.314,2.154-9.049,3.336-13.869,3.464
			c-0.063,0.01-0.125,0.022-0.187,0.04c-0.207,0.019-0.406,0.087-0.58,0.2c-0.057,0.022-0.11,0.049-0.163,0.078
			c-0.763,0.583-1.691,1.282-2.708,2.047c-3.973,2.988-8.918,6.707-11.081,8.828l-3.34,3.275c-1.258,1.219-3.256,1.219-4.515,0
			c-0.586-0.57-0.916-1.354-0.916-2.172s0.33-1.602,0.916-2.172l10.021-9.826c2.485-2.837,4.782-5.833,6.877-8.969
			c0.48-0.706,0.297-1.668-0.409-2.148s-1.669-0.297-2.149,0.409c-0.013,0.019-0.417,0.611-1.026,1.479
			c-0.994-1.764-2.269-3.354-3.772-4.71c-0.567-0.51-1.424-0.522-2.006-0.03l-0.029,0.021c-0.053,0.033-0.102,0.07-0.149,0.109
			c-0.051,0.07-0.096,0.145-0.134,0.223c-0.036,0.039-0.071,0.08-0.104,0.122c-0.536,0.639-1.189,1.168-1.924,1.562
			c-2.211,1.329-4.665,2.204-7.219,2.573c-0.063,0.019-0.127,0.041-0.188,0.067c-0.225,0.039-0.43,0.149-0.586,0.316
			c-0.063,0.042-0.125,0.09-0.182,0.143c-5.15,6.036-7.912,13.663-9.24,17.329l-0.205,0.563c-0.075,0.135-0.129,0.281-0.159,0.433
			c-0.758,2.078-1.706,3.133-2.82,3.133c-0.637,0.005-1.247-0.251-1.689-0.709c-0.402-0.413-0.616-0.973-0.595-1.549v-0.001h0.001
			c0.324-3.518,1.011-6.991,2.05-10.366c0.49-1.725,1.024-3.463,1.605-5.139c0.604-1.633,1.34-3.214,2.198-4.729
			c0.235-0.44,0.48-0.878,0.74-1.309c0.41-0.733,0.172-1.66-0.542-2.105c-0.353-0.218-0.779-0.282-1.181-0.179
			c-0.401,0.103-0.744,0.365-0.949,0.726c-0.273,0.452-0.534,0.913-0.782,1.384c-0.941,1.664-1.745,3.4-2.405,5.195
			c-0.614,1.772-1.151,3.525-1.66,5.313c-1.11,3.608-1.835,7.322-2.165,11.083v0.001l0,0v0.001l0,0
			c-0.061,1.418,0.465,2.798,1.453,3.815c1.027,1.063,2.443,1.662,3.921,1.661c1.467-0.011,2.854-0.662,3.8-1.782
			c0.462,0.892,1.149,1.646,1.995,2.186c0.919,0.563,1.979,0.852,3.055,0.832c1.406-0.048,2.79-0.373,4.071-0.955
			c0.108,0.125,0.198,0.264,0.318,0.381c2.463,2.392,6.383,2.392,8.846,0l3.34-3.276c2.02-1.979,7.079-5.785,10.774-8.564
			c0.867-0.652,1.648-1.243,2.344-1.769c5.429-0.236,10.74-1.667,15.556-4.188c0.062-0.042,0.12-0.089,0.176-0.141
			c0.09-0.058,0.174-0.124,0.25-0.199c0.117-0.158,0.22-0.326,0.307-0.502c0.033-0.104,0.055-0.212,0.065-0.321
			c0.019-0.069,0.033-0.142,0.043-0.214V28.68l-0.002-0.01l0.002-0.011c0-0.41-0.163-0.804-0.453-1.094
			S113.309,27.111,112.898,27.112z M86.15,45.253c-1.037,1.455-2.168,2.84-3.386,4.146l-5.226,5.124
			c1.183-4.283,2.725-8.458,4.608-12.482c0.462-0.301,0.903-0.63,1.322-0.988C84.623,42.268,85.533,43.694,86.15,45.253z
			 M66.944,65.107c-0.973-0.838-1.543-2.05-1.571-3.333l0.226-0.616c1.874-5.747,4.695-11.142,8.346-15.959
			c1.328-0.229,2.632-0.574,3.898-1.033c-1.982,4.537-3.396,9.302-4.209,14.186l-0.89,0.873c-1.182,1.15-1.847,2.73-1.844,4.38
			c0.001,0.417,0.043,0.832,0.128,1.24C69.772,65.532,68.276,65.629,66.944,65.107z"/>
		<path fill="#002D42" d="M35.568,117.73c7.687,0,13.918-6.231,13.918-13.919s-6.231-13.919-13.918-13.919
			c-7.688,0-13.92,6.231-13.92,13.919C21.656,111.495,27.884,117.722,35.568,117.73z M30.928,113.577v-1.384
			c0.275-2.299,2.334-3.96,4.641-3.742c1.231-0.022,2.429,0.404,3.368,1.202c0.784,0.612,1.251,1.546,1.271,2.54v1.384
			C37.275,114.99,33.859,114.99,30.928,113.577L30.928,113.577z M32.475,102.265c0-1.708,1.385-3.093,3.094-3.093
			c1.707,0,3.093,1.385,3.093,3.093s-1.386,3.094-3.093,3.094C33.859,105.355,32.477,103.973,32.475,102.265z M35.568,92.985
			c4.379-0.002,8.328,2.636,10.003,6.682c1.675,4.047,0.745,8.705-2.354,11.798c-0.2-1.625-1.012-3.113-2.27-4.163
			c-0.306-0.26-0.633-0.495-0.977-0.702c2.393-2.423,2.377-6.324-0.034-8.728c-2.412-2.405-6.313-2.408-8.728-0.008
			c-2.416,2.399-2.439,6.3-0.051,8.728c-1.768,1.044-2.961,2.839-3.24,4.873c-3.1-3.095-4.029-7.751-2.354-11.798
			C27.239,95.621,31.188,92.983,35.568,92.985z"/>
		<path fill="#002D42" d="M66.499,72.88c-7.687,0-13.919,6.232-13.919,13.919c0,7.688,6.232,13.92,13.919,13.92
			c7.688,0,13.92-6.232,13.92-13.92C80.41,79.115,74.183,72.888,66.499,72.88z M61.859,96.565v-1.385
			c0.275-2.299,2.335-3.959,4.64-3.742c1.232-0.022,2.43,0.405,3.369,1.202c0.784,0.613,1.25,1.546,1.271,2.54v1.385
			C68.207,97.978,64.791,97.978,61.859,96.565L61.859,96.565z M63.406,85.253c0-1.709,1.385-3.094,3.093-3.094
			c1.709,0,3.094,1.385,3.094,3.094c0,1.708-1.385,3.093-3.094,3.093C64.791,88.343,63.408,86.96,63.406,85.253z M74.147,94.453
			c-0.2-1.626-1.011-3.114-2.269-4.164c-0.306-0.26-0.632-0.495-0.976-0.701c2.392-2.424,2.376-6.324-0.035-8.729
			c-2.411-2.405-6.313-2.408-8.729-0.008c-2.416,2.399-2.438,6.3-0.05,8.728c-1.768,1.044-2.961,2.84-3.24,4.873
			c-3.1-3.096-4.028-7.753-2.354-11.8c1.675-4.048,5.624-6.688,10.004-6.687c4.38,0,8.328,2.639,10.003,6.688
			C78.178,86.7,77.248,91.358,74.147,94.453L74.147,94.453z"/>
		<path fill="#002D42" d="M100.523,89.893c-7.687,0-13.919,6.231-13.919,13.919s6.232,13.919,13.919,13.919
			c7.688,0,13.92-6.231,13.92-13.919C114.435,96.128,108.208,89.9,100.523,89.893z M95.884,113.577v-1.384
			c0.276-2.299,2.334-3.96,4.64-3.742c1.232-0.022,2.43,0.404,3.37,1.2c0.783,0.614,1.25,1.548,1.271,2.542v1.384
			C102.231,114.99,98.816,114.99,95.884,113.577z M97.431,102.265c0-1.708,1.385-3.093,3.093-3.093c1.709,0,3.094,1.385,3.094,3.093
			s-1.385,3.094-3.094,3.094C98.816,105.355,97.434,103.973,97.431,102.265z M108.172,111.465c-0.199-1.625-1.01-3.114-2.268-4.164
			c-0.307-0.259-0.634-0.493-0.978-0.7c2.394-2.424,2.378-6.324-0.034-8.729c-2.41-2.405-6.313-2.408-8.729-0.009
			s-2.438,6.301-0.05,8.729c-1.768,1.044-2.961,2.839-3.239,4.872c-3.1-3.095-4.029-7.753-2.354-11.801
			c1.675-4.047,5.624-6.687,10.004-6.687s8.329,2.641,10.004,6.688C112.202,103.713,111.272,108.37,108.172,111.465L108.172,111.465
			z"/>
	</g>
</g>
</svg>
