<?xml version="1.0" encoding="utf-8"?>
<!-- Generator: Adobe Illustrator 16.0.0, SVG Export Plug-In . SVG Version: 6.00 Build 0)  -->
<!DOCTYPE svg PUBLIC "-//W3C//DTD SVG 1.1//EN" "http://www.w3.org/Graphics/SVG/1.1/DTD/svg11.dtd">
<svg version="1.1" id="Capa_1" xmlns="http://www.w3.org/2000/svg" xmlns:xlink="http://www.w3.org/1999/xlink" x="0px" y="0px"
	 width="138.667px" height="142.666px" viewBox="0 0 138.667 142.666" enable-background="new 0 0 138.667 142.666"
	 xml:space="preserve">
<g>
	<polygon fill="#002D42" points="34.697,28.037 53.458,28.037 103.97,28.037 103.97,30.923 53.458,30.923 34.697,30.923 	"/>
	<g>
		<path fill="#002D42" d="M74.683,68.869c-0.564-0.555-1.472-0.551-2.031,0.009c-0.561,0.561-0.564,1.467-0.01,2.032l1.866,1.865
			l-1.866,1.866c-0.369,0.364-0.514,0.897-0.381,1.396c0.133,0.502,0.523,0.893,1.023,1.025c0.501,0.132,1.034-0.012,1.398-0.381
			l1.866-1.866l1.866,1.866c0.564,0.558,1.473,0.555,2.033-0.007c0.563-0.561,0.564-1.469,0.008-2.034l-1.867-1.866l1.867-1.865
			c0.368-0.364,0.513-0.897,0.381-1.397c-0.134-0.501-0.525-0.892-1.025-1.024s-1.033,0.013-1.396,0.381l-1.866,1.866L74.683,68.869
			z"/>
		<path fill="#002D42" d="M50.994,60.808c0.271,0.271,0.639,0.422,1.021,0.422s0.75-0.151,1.02-0.422l1.866-1.866l1.866,1.866
			c0.564,0.558,1.473,0.555,2.035-0.007c0.561-0.561,0.563-1.47,0.006-2.034l-1.867-1.865l1.867-1.867
			c0.557-0.564,0.555-1.473-0.006-2.033c-0.562-0.562-1.471-0.565-2.035-0.007l-1.866,1.866l-1.866-1.866
			c-0.564-0.559-1.473-0.555-2.034,0.005c-0.561,0.563-0.563,1.471-0.007,2.035l1.867,1.867l-1.867,1.865
			c-0.27,0.271-0.422,0.637-0.422,1.021C50.572,60.169,50.724,60.536,50.994,60.808z"/>
		<path fill="#002D42" d="M52.015,81.435c0.383,0,0.75-0.151,1.021-0.422c0.271-0.271,0.423-0.639,0.423-1.021
			c0-0.105,0.104-10.487,9.055-13.044c5.125-1.413,9.529-4.702,12.34-9.213l0.287,0.842c0.2,0.584,0.749,0.978,1.367,0.978
			c0.158-0.001,0.316-0.027,0.467-0.078c0.754-0.258,1.156-1.077,0.898-1.832l-1.4-4.097c-0.012-0.031-0.035-0.053-0.049-0.082
			c-0.039-0.089-0.088-0.173-0.146-0.252c-0.156-0.188-0.336-0.354-0.535-0.495c-0.03-0.015-0.064-0.013-0.096-0.024
			c-0.03-0.013-0.053-0.037-0.084-0.049c-0.059-0.012-0.119-0.019-0.179-0.021c-0.095-0.022-0.19-0.034-0.287-0.036
			c-0.099,0.002-0.196,0.016-0.292,0.039c-0.055,0.004-0.11,0.012-0.166,0.021l-4.096,1.4c-0.754,0.259-1.156,1.079-0.898,1.834
			c0.258,0.754,1.078,1.156,1.832,0.897l0.696-0.236c-2.442,3.726-6.158,6.438-10.452,7.628
			c-11.021,3.15-11.148,15.692-11.148,15.82c-0.001,0.382,0.151,0.749,0.422,1.021C51.265,81.283,51.632,81.435,52.015,81.435z"/>
		<path fill="#002D42" d="M84.187,52.148c0.271,0.271,0.639,0.423,1.021,0.423c0.047,0,0.094-0.004,0.142-0.007
			c0.431-0.043,0.819-0.276,1.059-0.636l5.772-8.659c0.435-0.663,0.252-1.552-0.406-1.991c-0.66-0.439-1.55-0.265-1.994,0.39
			l-4.797,7.194l-1.642-1.642c-0.565-0.555-1.472-0.55-2.032,0.01c-0.56,0.56-0.563,1.466-0.009,2.031L84.187,52.148z"/>
		<path fill="#002D42" d="M47.267,30.505c0.13-0.139,0.232-0.3,0.303-0.476c0.074-0.174,0.113-0.36,0.115-0.55
			c-0.006-0.382-0.154-0.747-0.418-1.024c-0.57-0.558-1.48-0.558-2.05,0l-0.173,0.217c-0.055,0.081-0.1,0.168-0.131,0.26
			c-0.041,0.081-0.07,0.17-0.086,0.261c-0.016,0.095-0.025,0.191-0.029,0.287c0.006,0.383,0.155,0.749,0.419,1.025
			C45.792,31.049,46.693,31.049,47.267,30.505L47.267,30.505z"/>
		<path fill="#002D42" d="M102.527,36.696h1.443c2.391,0,4.328-1.938,4.328-4.329c0-2.393-1.938-4.33-4.328-4.33H52.015
			c-0.797,0-1.443,0.646-1.443,1.442c0,0.798,0.646,1.443,1.443,1.443h51.955c0.796,0,1.441,0.646,1.441,1.444
			c0,0.796-0.646,1.442-1.441,1.442H34.697c-0.797,0-1.443-0.646-1.443-1.442c0-0.798,0.646-1.444,1.443-1.444h5.772
			c0.797,0,1.443-0.646,1.443-1.443c0-0.797-0.646-1.442-1.443-1.442h-5.772c-2.391,0-4.33,1.938-4.33,4.33
			c0,2.391,1.939,4.329,4.33,4.329h1.443v6.857c-8.148,9.723-11.617,22.533-9.489,35.039c2.127,12.505,9.638,23.445,20.542,29.927
			c0.022,0.018,0.034,0.043,0.059,0.06c0.082,0.051,0.168,0.091,0.258,0.123c1.68,0.987,3.424,1.859,5.221,2.61
			c0.07,0.035,0.145,0.064,0.221,0.087c10.498,4.305,22.268,4.305,32.765,0c0.075-0.022,0.149-0.052,0.221-0.087
			c1.798-0.751,3.542-1.623,5.221-2.61c0.091-0.032,0.177-0.072,0.259-0.123c0.023-0.017,0.034-0.042,0.058-0.06
			c10.905-6.481,18.415-17.422,20.542-29.927c2.129-12.506-1.341-25.316-9.488-35.039V36.696z M99.64,36.696v47.625
			c-0.002,0.797-0.646,1.442-1.443,1.443H40.469c-0.796-0.001-1.442-0.646-1.442-1.443V36.696H99.64z M85.861,108.193l-8.389-12.327
			h0.52c0.907-0.001,1.789-0.29,2.522-0.824l8.012,11.843C87.658,107.355,86.765,107.785,85.861,108.193z M73.982,95.866
			l9.15,13.446c-3.056,1.112-6.236,1.851-9.471,2.193v-15.64H73.982z M79.435,91.538c0,0.796-0.646,1.441-1.443,1.442H60.673
			c-0.797-0.001-1.441-0.646-1.442-1.442V88.65h20.204V91.538L79.435,91.538z M50.14,106.885l8.012-11.843
			c0.732,0.534,1.615,0.823,2.521,0.824h0.52l-8.389,12.327C51.9,107.785,51.008,107.355,50.14,106.885z M64.685,95.866h0.318v15.64
			c-3.234-0.343-6.414-1.081-9.471-2.193L64.685,95.866z M28.924,71.333c0.006-8.226,2.522-16.251,7.216-23.006v35.994
			c0.002,2.39,1.939,4.326,4.33,4.329h15.874v2.888c0.001,0.297,0.032,0.595,0.094,0.887l-8.783,12.983
			C35.997,97.998,28.931,85.146,28.924,71.333z M67.89,111.705V95.866h2.887v15.839c-0.48,0.017-0.959,0.037-1.443,0.037
			S68.369,111.722,67.89,111.705z M109.742,71.333c-0.008,13.813-7.072,26.665-18.73,34.075l-8.783-12.983
			c0.063-0.292,0.094-0.59,0.094-0.887V88.65h15.875c2.391-0.003,4.326-1.939,4.329-4.329V48.327
			C107.218,55.082,109.736,63.108,109.742,71.333z"/>
	</g>
</g>
</svg>
