<?xml version="1.0" encoding="utf-8"?>
<!-- Generator: Adobe Illustrator 16.0.0, SVG Export Plug-In . SVG Version: 6.00 Build 0)  -->
<!DOCTYPE svg PUBLIC "-//W3C//DTD SVG 1.1//EN" "http://www.w3.org/Graphics/SVG/1.1/DTD/svg11.dtd">
<svg version="1.1" id="Capa_1" xmlns="http://www.w3.org/2000/svg" xmlns:xlink="http://www.w3.org/1999/xlink" x="0px" y="0px"
	 width="441.703px" height="480.499px" viewBox="0 0 441.703 480.499" enable-background="new 0 0 441.703 480.499"
	 xml:space="preserve">
<g>
	<g>
		<path fill="#002D42" d="M113.33,94.228c0.529,9.256,1.342,18.248,2.324,26.953c1.002,8.697,1.984,16.463,2.943,23.33
			c2.086-3.871,4.241-8.125,6.484-12.756c2.28-4.635,4.537-9.486,6.771-14.573c2.24-5.07,4.488-10.298,6.726-15.669
			c2.254-5.338,4.404-10.674,6.479-15.994h10.681c-5.544,13.664-11.04,26.43-16.524,38.252c-5.502,11.805-11.318,23-17.373,33.587
			h-10.173c-1.177-7.302-2.324-14.876-3.431-22.617c-1.072-7.8-1.968-16.296-2.688-25.479c-4.712,8.563-9.315,16.729-13.858,24.5
			c-4.506,7.799-9.336,15.663-14.424,23.597H67.099c-0.564-5.581-0.937-11.167-1.165-16.776c-0.193-5.609-0.321-11.416-0.321-17.443
			c0-5.99,0.128-12.082,0.321-18.218c0.229-6.091,0.514-12.546,0.942-19.401h9.967c-0.467,7.244-0.872,14.406-1.168,21.499
			c-0.237,7.099-0.402,14.29-0.402,21.638c0,5.308,0.09,10.593,0.342,15.855c4.734-7.338,9.492-15.241,14.218-23.754
			c4.752-8.479,9.506-17.344,14.289-26.529H113.33z"/>
		<path fill="#002D42" d="M172.542,158.708c-3.526,0-6.572-0.477-9.142-1.502c-2.567-1.002-4.691-2.381-6.43-4.143
			c-1.704-1.744-2.999-3.813-3.833-6.166c-0.814-2.342-1.214-4.838-1.214-7.476c0-4.821,0.706-9.491,2.155-13.982
			c1.483-4.526,3.535-8.466,6.241-11.943c2.706-3.442,5.966-6.2,9.834-8.252c3.883-2.046,8.269-3.03,13.2-3.03
			c2.813,0,5.239,0.348,7.268,1.078c2.051,0.706,3.708,1.721,5.006,2.938c1.24,1.27,2.205,2.706,2.837,4.328
			c0.62,1.6,0.936,3.286,0.936,5.008c0,3.262-0.576,6.003-1.768,8.246c-1.152,2.26-2.726,4.166-4.667,5.666
			c-1.925,1.508-4.202,2.707-6.771,3.506c-2.59,0.853-5.314,1.502-8.11,1.988c-2.818,0.463-5.629,0.812-8.486,0.984
			c-2.883,0.157-5.571,0.325-8.142,0.476c-0.087,0.522-0.13,0.991-0.13,1.333v0.828c0,1.588,0.196,3.112,0.576,4.516
			c0.383,1.418,1.124,2.659,2.149,3.73c1.029,1.066,2.457,1.918,4.285,2.533c1.835,0.631,4.205,0.934,7.203,0.934
			c1.31,0,2.672-0.105,4.08-0.365c1.431-0.244,2.796-0.539,4.048-0.945c1.295-0.371,2.437-0.73,3.439-1.124
			c1.014-0.382,1.703-0.725,2.132-1.101l0.825,8.223c-1.384,0.746-3.621,1.547-6.689,2.428
			C180.298,158.278,176.676,158.708,172.542,158.708 M162.688,129.05c4.027-0.123,7.692-0.383,11.001-0.777
			c3.324-0.382,6.206-1.025,8.597-1.964c2.408-0.938,4.286-2.179,5.65-3.772c1.341-1.623,2.042-3.674,2.042-6.242
			c0-0.613-0.145-1.279-0.385-1.957c-0.246-0.714-0.657-1.328-1.252-1.93c-0.582-0.592-1.385-1.078-2.413-1.438
			c-1.025-0.383-2.301-0.563-3.865-0.563c-2.416,0-4.668,0.521-6.797,1.541c-2.049,1.038-3.976,2.389-5.624,4.086
			c-1.678,1.687-3.089,3.68-4.269,5.898C164.186,124.211,163.287,126.569,162.688,129.05"/>
		<path fill="#002D42" d="M120.864,202.284c3.042,0,5.604,0.476,7.733,1.367c2.071,0.934,3.798,2.214,5.045,3.819
			c1.321,1.576,2.211,3.431,2.749,5.54c0.589,2.114,0.849,4.316,0.849,6.675c0,1.536-0.084,3.199-0.358,4.926
			c-0.264,1.779-0.577,3.506-0.985,5.117l-6.635,27.601h-9.654l6.134-25.492c0.327-1.61,0.727-3.349,1.179-5.371
			c0.452-1.93,0.698-3.895,0.698-5.842c0-1.298-0.186-2.589-0.507-3.83c-0.255-1.257-0.794-2.317-1.533-3.21
			c-0.712-0.903-1.747-1.628-3.056-2.179c-1.319-0.58-2.961-0.84-4.903-0.84c-2.19,0-4.329,0.411-6.414,1.315
			c-2.065,0.856-3.813,1.714-5.181,2.636c0.133,0.963,0.249,1.93,0.382,2.84c0.091,0.968,0.133,1.854,0.133,2.747
			c0,1.599-0.106,3.204-0.35,4.827c-0.252,1.64-0.565,3.222-0.873,4.798l-6.664,27.601h-9.65l6.163-25.492
			c0.307-1.61,0.716-3.395,1.117-5.405c0.425-1.987,0.632-3.999,0.632-6.026c0-1.311-0.161-2.574-0.426-3.768
			c-0.295-1.223-0.747-2.277-1.385-3.17c-0.698-0.881-1.573-1.587-2.646-2.109c-1.106-0.533-2.538-0.793-4.256-0.793
			c-1.747,0-3.396,0.115-5.032,0.336c-1.629,0.191-2.987,0.475-4.092,0.8l-10.987,45.628h-9.656l12.449-51.84
			c3.095-0.969,6.522-1.732,10.211-2.336c3.712-0.592,6.995-0.869,9.892-0.869c2.903,0,5.343,0.476,7.377,1.53
			c1.99,0.95,3.569,2.277,4.761,3.987c0.663-0.506,1.622-1.056,2.856-1.71c1.215-0.603,2.576-1.2,4.135-1.768
			c1.541-0.51,3.266-0.997,5.1-1.442C117.046,202.498,118.924,202.284,120.864,202.284"/>
		<path fill="#002D42" d="M181.188,257.972c-0.301-0.781-0.666-1.622-1.005-2.537c-0.362-0.968-0.643-1.953-0.853-2.967
			c-1.516,1.391-3.563,2.77-6.119,4.144c-2.538,1.379-5.696,2.068-9.428,2.068c-3.039,0-5.652-0.476-7.82-1.438
			c-2.173-0.979-3.949-2.307-5.337-4.056c-1.385-1.738-2.422-3.75-3.065-6.125c-0.675-2.348-0.982-4.938-0.982-7.76
			c0-4.637,0.766-9.145,2.324-13.589c1.562-4.409,3.885-8.386,7.015-11.833c3.091-3.454,6.994-6.229,11.714-8.391
			c4.686-2.156,10.184-3.205,16.464-3.205c1.874,0,4.067,0.214,6.539,0.598c2.512,0.445,4.63,1.117,6.414,2.104l-7.974,32.561
			c-0.336,1.588-0.619,3.088-0.871,4.561c-0.238,1.414-0.363,2.955-0.363,4.555c0,1.588,0.145,3.188,0.406,4.815
			c0.27,1.64,0.768,3.384,1.448,5.238L181.188,257.972z M165.752,250.497c2.923,0,5.386-0.604,7.46-1.877
			c2.087-1.24,3.883-2.684,5.393-4.358c0.066-1.159,0.214-2.41,0.373-3.662c0.18-1.298,0.38-2.556,0.652-3.882l6.232-25.741
			c-0.333-0.151-0.921-0.208-1.718-0.296c-0.782-0.098-1.483-0.115-2.107-0.115c-3.945,0-7.483,0.765-10.68,2.295
			c-3.195,1.5-5.901,3.528-8.127,6.061c-2.277,2.533-3.983,5.471-5.218,8.82c-1.177,3.338-1.829,6.844-1.829,10.535
			c0,1.419,0.163,2.896,0.447,4.387c0.274,1.494,0.787,2.827,1.501,3.951c0.732,1.125,1.674,2.075,2.908,2.794
			C162.248,250.126,163.808,250.497,165.752,250.497"/>
		<path fill="#002D42" d="M200.709,257.329l18.972-78.81l10.049-1.651l-11.639,48.016c2.297-1.668,4.647-3.477,7.09-5.459
			c2.413-1.959,4.714-3.939,6.875-5.841c2.193-1.93,4.201-3.784,6.007-5.563c1.86-1.749,3.335-3.279,4.522-4.59h11.41
			c-1.475,1.773-3.329,3.791-5.531,5.993c-2.283,2.23-4.624,4.438-7.137,6.704c-2.478,2.237-4.951,4.433-7.524,6.455
			c-2.5,2.104-4.737,3.849-6.742,5.279c1.854,1.762,3.747,3.802,5.627,6.213c1.915,2.369,3.732,4.885,5.487,7.557
			c1.765,2.652,3.382,5.365,4.839,8.089c1.445,2.724,2.654,5.284,3.64,7.608H236.17c-2.41-5.58-5.311-10.762-8.674-15.455
			c-3.33-4.688-6.876-8.518-10.611-11.496l-6.52,26.951H200.709z"/>
		<path fill="#002D42" d="M275.022,258.68c-3.519,0-6.549-0.476-9.125-1.501c-2.544-1.002-4.69-2.382-6.4-4.143
			c-1.724-1.745-3.045-3.813-3.856-6.167c-0.812-2.341-1.22-4.838-1.22-7.476c0-4.82,0.733-9.491,2.161-13.982
			c1.458-4.525,3.515-8.466,6.241-11.943c2.68-3.442,5.966-6.2,9.831-8.252c3.883-2.045,8.27-3.03,13.181-3.03
			c2.837,0,5.282,0.348,7.311,1.078c2.031,0.706,3.683,1.722,4.985,2.938c1.267,1.269,2.226,2.705,2.86,4.328
			c0.6,1.6,0.938,3.285,0.938,5.007c0,3.263-0.613,6.003-1.816,8.246c-1.139,2.261-2.727,4.166-4.65,5.667
			c-1.893,1.507-4.195,2.707-6.791,3.506c-2.567,0.852-5.294,1.501-8.107,1.988c-2.775,0.463-5.587,0.811-8.469,0.984
			c-2.883,0.156-5.584,0.324-8.183,0.475c-0.043,0.522-0.061,0.992-0.061,1.334v0.828c0,1.588,0.174,3.111,0.573,4.515
			c0.362,1.419,1.077,2.659,2.133,3.731c1.002,1.066,2.454,1.918,4.285,2.533c1.828,0.631,4.221,0.933,7.191,0.933
			c1.342,0,2.684-0.104,4.108-0.365c1.41-0.243,2.771-0.539,4.048-0.945c1.304-0.37,2.439-0.729,3.422-1.124
			c1.011-0.382,1.715-0.725,2.124-1.1l0.851,8.222c-1.41,0.747-3.645,1.548-6.71,2.428
			C282.804,258.251,279.199,258.68,275.022,258.68 M265.217,229.021c3.996-0.122,7.658-0.382,10.964-0.776
			c3.335-0.383,6.195-1.025,8.607-1.965c2.432-0.938,4.313-2.179,5.669-3.772c1.323-1.622,2.013-3.673,2.013-6.241
			c0-0.613-0.113-1.28-0.351-1.958c-0.274-0.714-0.652-1.327-1.28-1.93c-0.557-0.591-1.383-1.078-2.428-1.438
			c-1.043-0.382-2.307-0.562-3.837-0.562c-2.404,0-4.686,0.521-6.785,1.541c-2.104,1.037-3.979,2.388-5.627,4.086
			c-1.684,1.686-3.089,3.679-4.263,5.898C266.706,224.183,265.837,226.542,265.217,229.021"/>
		<path fill="#002D42" d="M339.249,257.329h-9.678l12.963-53.898h9.653L339.249,257.329z M350.447,193.69
			c-1.579,0-2.943-0.516-4.004-1.482c-1.09-0.951-1.605-2.308-1.605-4.006c0-2.248,0.666-3.986,2.077-5.267
			c1.365-1.275,2.931-1.918,4.648-1.918c1.594,0,2.957,0.504,4.047,1.519c1.11,1.008,1.677,2.393,1.677,4.183
			c0,2.069-0.735,3.761-2.192,5.042C353.669,193.036,352.107,193.69,350.447,193.69"/>
		<path fill="#002D42" d="M373.857,258.796c-5.153,0-8.978-1.154-11.418-3.432c-2.413-2.26-3.61-5.609-3.61-9.955
			c0-2.828,0.508-6.449,1.449-10.871l11.108-46.162l10.046-1.633l-4.071,16.671h18.375l-1.961,8.096H375.42l-5.713,23.857
			c-0.835,3.239-1.234,6.062-1.234,8.495c0,2.277,0.631,3.905,1.854,4.908c1.234,1.002,3.3,1.507,6.241,1.507
			c2.011,0,3.973-0.349,5.914-0.979c1.933-0.649,3.403-1.258,4.452-1.808l0.708,8.192c-1.043,0.633-2.79,1.311-5.268,2.023
			C379.894,258.419,377.061,258.796,373.857,258.796"/>
		<path fill="#002D42" d="M80.472,357.012l-10.168,18.456H59.326c7.736-13.977,15.287-26.813,22.663-38.553
			c7.354-11.758,14.606-22.873,21.807-33.286h9.875c1.025,5.152,1.967,10.413,2.836,15.692c0.854,5.285,1.707,10.849,2.521,16.648
			c0.809,5.801,1.617,11.943,2.407,18.434c0.751,6.514,1.533,13.525,2.386,21.064h-10.149c-0.383-3.094-0.661-6.24-0.961-9.382
			c-0.291-3.129-0.575-6.154-0.935-9.074H80.472z M110.834,348.968c-0.534-5.638-1.185-11.184-1.919-16.712
			c-0.698-5.558-1.573-11.235-2.529-17.124c-2.413,3.512-5.427,8.072-9.049,13.606c-3.578,5.593-7.61,12.291-12.197,20.229H110.834z
			"/>
		<path fill="#002D42" d="M145.153,386.658c2.834,0,5.346-0.331,7.48-1.032c2.151-0.678,3.984-1.691,5.543-3.008
			c1.576-1.292,2.814-2.856,3.778-4.658c0.98-1.797,1.741-3.818,2.307-6.114l0.4-1.981c-1.388,0.777-3.242,1.559-5.612,2.283
			c-2.345,0.776-4.737,1.164-7.267,1.164c-5.583,0-9.893-1.413-12.883-4.225c-3.027-2.781-4.5-6.709-4.5-11.745
			c0-4.63,0.766-9.149,2.263-13.601c1.533-4.428,3.816-8.355,6.952-11.833c3.129-3.466,7.015-6.247,11.618-8.327
			c4.645-2.115,10.08-3.158,16.272-3.158c0.977,0,2.042,0.075,3.282,0.214c1.176,0.134,2.431,0.325,3.735,0.539
			c1.251,0.261,2.491,0.598,3.72,0.997c1.218,0.429,2.269,0.904,3.158,1.455l-11.317,47.163c-0.89,3.732-2.002,7.116-3.306,10.089
			c-1.314,2.944-3.094,5.477-5.375,7.563c-2.282,2.063-5.235,3.68-8.828,4.811c-3.604,1.158-8.075,1.727-13.476,1.727
			c-2.979,0-5.929-0.406-8.828-1.206c-2.901-0.8-5.347-1.773-7.349-2.955l3.621-8.089c1.577,1.17,3.709,2.127,6.316,2.861
			C139.5,386.299,142.245,386.658,145.153,386.658 M153.89,365.2c2.746,0,5.272-0.494,7.613-1.502
			c2.308-1.002,4.077-1.953,5.329-2.856l7.591-31.495c-0.686-0.139-1.489-0.289-2.393-0.429c-0.914-0.151-1.779-0.214-2.616-0.214
			c-3.724,0-7.119,0.713-10.252,2.144c-3.103,1.414-5.763,3.31-8.043,5.69c-2.257,2.376-3.976,5.163-5.228,8.293
			c-1.233,3.146-1.83,6.414-1.83,9.799c0,3.732,0.781,6.438,2.407,8.09C148.086,364.371,150.586,365.2,153.89,365.2"/>
		<path fill="#002D42" d="M198.771,375.468h-9.648l12.954-53.898h9.688L198.771,375.468z M209.972,311.829
			c-1.565,0-2.929-0.516-4.007-1.482c-1.066-0.951-1.582-2.308-1.582-4.006c0-2.248,0.666-3.986,2.08-5.267
			c1.356-1.275,2.935-1.918,4.662-1.918c1.579,0,2.958,0.504,4.036,1.519c1.102,1.008,1.681,2.393,1.681,4.183
			c0,2.069-0.754,3.761-2.209,5.042C213.193,311.175,211.614,311.829,209.972,311.829"/>
		<path fill="#002D42" d="M229.369,351.749c-0.361,1.502-0.689,2.991-1.051,4.463c-0.328,1.426-0.489,2.828-0.489,4.109
			c0,2.357,0.562,4.234,1.691,5.613c1.153,1.403,3.268,2.249,6.389,2.604l-2.18,7.887c-2.87-0.082-5.235-0.522-7.217-1.293
			c-1.967-0.816-3.558-1.854-4.763-3.17c-1.226-1.345-2.104-2.885-2.632-4.677c-0.535-1.778-0.852-3.772-0.852-5.915
			c0-1.588,0.154-3.258,0.429-4.973c0.287-1.745,0.661-3.541,1.128-5.412l13.056-54.327l10.048-1.651L229.369,351.749z"/>
		<path fill="#002D42" d="M265.759,376.818c-3.521,0-6.565-0.476-9.147-1.501c-2.544-1.002-4.685-2.382-6.403-4.143
			c-1.715-1.745-3.019-3.813-3.848-6.167c-0.829-2.341-1.252-4.838-1.252-7.476c0-4.82,0.762-9.491,2.193-13.982
			c1.451-4.525,3.535-8.466,6.241-11.943c2.706-3.442,5.963-6.2,9.846-8.252c3.861-2.045,8.249-3.03,13.156-3.03
			c2.846,0,5.265,0.348,7.319,1.078c2.043,0.706,3.709,1.722,4.976,2.938c1.277,1.269,2.228,2.705,2.867,4.328
			c0.592,1.6,0.916,3.285,0.916,5.007c0,3.263-0.576,6.003-1.793,8.246c-1.139,2.261-2.729,4.166-4.648,5.667
			c-1.917,1.507-4.195,2.707-6.779,3.506c-2.581,0.852-5.311,1.501-8.106,1.988c-2.793,0.463-5.624,0.811-8.484,0.984
			c-2.857,0.156-5.587,0.324-8.142,0.475c-0.063,0.522-0.128,0.992-0.128,1.334v0.828c0,1.588,0.215,3.111,0.604,4.515
			c0.361,1.419,1.104,2.659,2.117,3.731c1.026,1.066,2.455,1.918,4.297,2.533c1.829,0.631,4.248,0.933,7.218,0.933
			c1.317,0,2.668-0.104,4.086-0.365c1.429-0.243,2.769-0.539,4.021-0.945c1.301-0.37,2.457-0.729,3.471-1.124
			c0.979-0.382,1.692-0.725,2.068-1.1l0.876,8.222c-1.38,0.747-3.619,1.548-6.702,2.428
			C273.538,376.39,269.919,376.818,265.759,376.818 M255.91,347.16c4.022-0.122,7.692-0.382,10.976-0.776
			c3.346-0.383,6.2-1.025,8.622-1.965c2.432-0.938,4.309-2.179,5.65-3.772c1.341-1.622,2.042-3.673,2.042-6.241
			c0-0.613-0.124-1.28-0.361-1.958c-0.278-0.714-0.682-1.327-1.281-1.93c-0.564-0.591-1.388-1.078-2.431-1.438
			c-1.025-0.382-2.28-0.562-3.847-0.562c-2.391,0-4.662,0.521-6.777,1.541c-2.069,1.037-3.974,2.388-5.627,4.086
			c-1.704,1.686-3.084,3.679-4.263,5.898C257.426,342.321,256.524,344.681,255.91,347.16"/>
	</g>
</g>
</svg>
