<?xml version="1.0" encoding="utf-8"?>
<!-- Generator: Adobe Illustrator 16.0.0, SVG Export Plug-In . SVG Version: 6.00 Build 0)  -->
<!DOCTYPE svg PUBLIC "-//W3C//DTD SVG 1.1//EN" "http://www.w3.org/Graphics/SVG/1.1/DTD/svg11.dtd">
<svg version="1.1" id="Capa_1" xmlns="http://www.w3.org/2000/svg" xmlns:xlink="http://www.w3.org/1999/xlink" x="0px" y="0px"
	 width="49.333px" height="53.666px" viewBox="0 0 49.333 53.666" enable-background="new 0 0 49.333 53.666" xml:space="preserve">
<g>
	<g>
		<path fill="#002D42" d="M39.129,29.959v10.693H32.93v-9.978c0-2.506-0.897-4.217-3.142-4.217c-1.713,0-2.732,1.152-3.181,2.267
			c-0.164,0.399-0.206,0.954-0.206,1.513v10.415H20.2c0,0,0.084-16.898,0-18.648h6.201v2.643c-0.013,0.02-0.029,0.041-0.041,0.061
			h0.041v-0.061c0.824-1.27,2.296-3.082,5.589-3.082C36.07,21.564,39.129,24.23,39.129,29.959L39.129,29.959z M13.713,13.013
			c-2.123,0-3.51,1.392-3.51,3.222c0,1.79,1.348,3.225,3.427,3.225h0.042c2.162,0,3.508-1.434,3.508-3.225
			C17.139,14.404,15.834,13.013,13.713,13.013L13.713,13.013z M10.572,40.652h6.2V22.004h-6.2V40.652z M10.572,40.652"/>
	</g>
</g>
</svg>
