<?xml version="1.0" encoding="utf-8"?>
<!-- Generator: Adobe Illustrator 16.0.0, SVG Export Plug-In . SVG Version: 6.00 Build 0)  -->
<!DOCTYPE svg PUBLIC "-//W3C//DTD SVG 1.1//EN" "http://www.w3.org/Graphics/SVG/1.1/DTD/svg11.dtd">
<svg version="1.1" id="Capa_1" xmlns="http://www.w3.org/2000/svg" xmlns:xlink="http://www.w3.org/1999/xlink" x="0px" y="0px"
	 width="49.333px" height="53.666px" viewBox="0 0 49.333 53.666" enable-background="new 0 0 49.333 53.666" xml:space="preserve">
<g>
	<path fill="#FFFFFF" d="M40.656,29.732v10.693h-6.199v-9.978c0-2.506-0.897-4.217-3.142-4.217c-1.713,0-2.732,1.152-3.181,2.268
		c-0.164,0.398-0.206,0.953-0.206,1.512v10.415h-6.202c0,0,0.084-16.898,0-18.649h6.201v2.644c-0.013,0.02-0.029,0.041-0.041,0.061
		h0.041V24.42c0.824-1.27,2.296-3.082,5.589-3.082C37.597,21.338,40.656,24.004,40.656,29.732L40.656,29.732z M15.24,12.786
		c-2.123,0-3.51,1.392-3.51,3.222c0,1.79,1.348,3.225,3.427,3.225h0.042c2.162,0,3.508-1.434,3.508-3.225
		C18.666,14.178,17.361,12.786,15.24,12.786L15.24,12.786z M12.099,40.426h6.2V21.776h-6.2V40.426z M12.099,40.426"/>
</g>
</svg>
