<?xml version="1.0" encoding="utf-8"?>
<!-- Generator: Adobe Illustrator 16.0.0, SVG Export Plug-In . SVG Version: 6.00 Build 0)  -->
<!DOCTYPE svg PUBLIC "-//W3C//DTD SVG 1.1//EN" "http://www.w3.org/Graphics/SVG/1.1/DTD/svg11.dtd">
<svg version="1.1" id="Capa_1" xmlns="http://www.w3.org/2000/svg" xmlns:xlink="http://www.w3.org/1999/xlink" x="0px" y="0px"
	 width="1441px" height="387px" viewBox="0 0 1441 387" enable-background="new 0 0 1441 387" xml:space="preserve">
<g>
	<path fill="#FFFFFF" d="M493.555,244.002c-26.41,0-43.773-18.812-43.773-43.531c0-23.765,18.083-43.772,43.524-43.772
		c14.713,0,23.761,4.085,32.442,11.448l-9.417,11.223c-6.506-5.552-12.889-9.058-23.634-9.058c-15.55,0-27.361,13.521-27.361,29.901
		c0,17.498,11.446,30.268,28.686,30.268c7.965,0,15.207-2.528,20.385-6.394v-15.784h-21.59v-12.901h35.946v35.456
		C520.436,237.961,508.504,244.002,493.555,244.002"/>
	<path fill="#FFFFFF" d="M602.154,242.547l-20.747-29.421h-18.563v29.421h-14.834v-84.397h37.625
		c19.419,0,31.35,10.233,31.35,26.768c0,13.979-8.328,22.422-20.143,25.669l22.787,31.961H602.154z M584.421,171.64h-21.578v28.342
		h21.698c10.622,0,17.378-5.551,17.378-14.232C601.919,176.463,595.397,171.64,584.421,171.64"/>
	<path fill="#FFFFFF" d="M675.426,244.002c-25.925,0-44.012-19.665-44.012-43.527c0-23.893,18.337-43.776,44.254-43.776
		c25.933,0,44.016,19.642,44.016,43.515C719.684,224.087,701.347,244.002,675.426,244.002 M675.426,170.312
		c-16.759,0-28.458,13.386-28.458,29.901c0,16.524,11.938,30.168,28.701,30.168c16.766,0,28.462-13.394,28.462-29.906
		C704.13,183.939,692.181,170.312,675.426,170.312"/>
	<polygon fill="#FFFFFF" points="783.435,157.895 795.966,157.895 816.702,220.714 836.845,158.146 852.394,158.146 
		822.988,243.139 810.2,243.139 789.452,182.504 768.721,243.139 755.936,243.139 726.511,158.146 742.542,158.146 762.688,220.714 
			"/>
	<rect x="868.377" y="158.149" fill="#FFFFFF" width="14.826" height="84.397"/>
	<polygon fill="#FFFFFF" points="964.701,158.149 979.3,158.149 979.3,242.547 966.885,242.547 920.342,182.504 920.342,242.547 
		905.745,242.547 905.745,158.149 919.488,158.149 964.701,216.51 	"/>
	<path fill="#FFFFFF" d="M1040.988,244.002c-26.392,0-43.771-18.812-43.771-43.531c0-23.765,18.099-43.772,43.531-43.772
		c14.721,0,23.75,4.085,32.431,11.448l-9.396,11.223c-6.504-5.552-12.909-9.058-23.635-9.058c-15.55,0-27.362,13.521-27.362,29.901
		c0,17.498,11.446,30.268,28.69,30.268c7.957,0,15.194-2.528,20.376-6.394v-15.784h-21.586v-12.901h35.927v35.456
		C1067.887,237.961,1055.951,244.002,1040.988,244.002"/>
	<rect x="1092.812" y="197.33" fill="#FFFFFF" width="16.038" height="16.516"/>
	<polygon fill="#FFFFFF" points="1142.703,206.977 1142.703,242.547 1127.873,242.547 1127.873,158.149 1142.703,158.149 
		1142.703,193.229 1182.984,193.229 1182.984,158.149 1197.818,158.149 1197.818,242.547 1182.984,242.547 1182.984,206.977 	"/>
	<path fill="#FFFFFF" d="M1273.62,242.547l-20.732-29.421h-18.582v29.421h-14.83v-84.397h37.616
		c19.426,0,31.364,10.233,31.364,26.768c0,13.979-8.315,22.422-20.135,25.669l22.776,31.961H1273.62z M1255.89,171.64h-21.584
		v28.342h21.723c10.606,0,17.356-5.551,17.356-14.232C1273.384,176.463,1266.863,171.64,1255.89,171.64"/>
	<path fill="#FFFFFF" d="M395.093,199.624c0-74.284-60.2-134.472-134.468-134.472c-70.732,0-134.46,56.704-134.46,134.472
		c0,17.381,3.414,33.935,9.42,49.183c20.821,46.418,61.744,72.111,111.602,72.111c52.965,0,92.18-41.763,92.18-96.593
		c0-42.903-27.664-77.298-73.399-77.298c-41.836,0-66.4,28.208-66.4,57.779c0,27.1,18.997,49.278,47.62,49.545
		c9.585,0.078,19.008-2.583,26.742-7.825l-6.006-19.988l-20.911,5.801l-6.245-21.422l48.011-13.599l17.057,58.237l-5.857,5.865
		c-13.971,13.99-33.591,20.993-53.436,20.993c-41.348,0-75.246-31.135-75.246-76.638c0-47.34,38.39-86.903,95.292-86.903
		c56.588,0,101.018,46.537,101.018,108.02c0,43.407-19.031,77.137-51.127,94.659l-0.056,0.296
		C362.804,300.626,395.093,253.937,395.093,199.624"/>
</g>
</svg>
