<?xml version="1.0" encoding="utf-8"?>
<!-- Generator: Adobe Illustrator 16.0.0, SVG Export Plug-In . SVG Version: 6.00 Build 0)  -->
<!DOCTYPE svg PUBLIC "-//W3C//DTD SVG 1.1//EN" "http://www.w3.org/Graphics/SVG/1.1/DTD/svg11.dtd">
<svg version="1.1" id="Capa_1" xmlns="http://www.w3.org/2000/svg" xmlns:xlink="http://www.w3.org/1999/xlink" x="0px" y="0px"
	 width="1441px" height="387px" viewBox="0 0 1441 387" enable-background="new 0 0 1441 387" xml:space="preserve">
<g>
	<path fill="#19BCB0" d="M899.283,248.347c0.31,5.399,0.783,10.646,1.356,15.722c0.584,5.078,1.158,9.604,1.717,13.611
		c1.217-2.26,2.474-4.74,3.783-7.441c1.33-2.705,2.646-5.533,3.949-8.502c1.307-2.957,2.619-6.004,3.923-9.14
		c1.315-3.114,2.569-6.228,3.78-9.33h6.23c-3.233,7.97-6.439,15.417-9.639,22.314c-3.209,6.886-6.602,13.416-10.134,19.592h-5.935
		c-0.687-4.26-1.356-8.677-2.001-13.194c-0.625-4.549-1.148-9.505-1.568-14.863c-2.748,4.996-5.434,9.76-8.084,14.293
		c-2.628,4.551-5.445,9.137-8.414,13.765h-5.931c-0.33-3.255-0.545-6.514-0.679-9.786c-0.113-3.272-0.187-6.658-0.187-10.175
		c0-3.495,0.074-7.049,0.187-10.629c0.134-3.553,0.299-7.317,0.55-11.316h5.814c-0.273,4.225-0.509,8.403-0.682,12.54
		c-0.139,4.142-0.235,8.337-0.235,12.623c0,3.097,0.052,6.18,0.2,9.25c2.762-4.28,5.537-8.892,8.293-13.858
		c2.772-4.944,5.545-10.116,8.336-15.475H899.283z"/>
	<path fill="#19BCB0" d="M933.825,285.961c-2.057,0-3.834-0.277-5.333-0.875c-1.497-0.586-2.736-1.39-3.75-2.418
		c-0.995-1.018-1.75-2.225-2.237-3.596c-0.475-1.366-0.708-2.824-0.708-4.361c0-2.813,0.412-5.537,1.257-8.154
		c0.865-2.644,2.062-4.941,3.641-6.971c1.578-2.008,3.48-3.616,5.737-4.813c2.265-1.194,4.824-1.769,7.7-1.769
		c1.641,0,3.056,0.202,4.239,0.63c1.197,0.411,2.164,1.004,2.921,1.713c0.723,0.74,1.286,1.579,1.655,2.525
		c0.361,0.934,0.546,1.916,0.546,2.92c0,1.904-0.336,3.503-1.031,4.811c-0.673,1.319-1.59,2.431-2.723,3.306
		c-1.122,0.88-2.451,1.579-3.95,2.046c-1.511,0.498-3.1,0.875-4.731,1.159c-1.645,0.271-3.284,0.473-4.95,0.574
		c-1.682,0.092-3.25,0.19-4.75,0.277c-0.051,0.304-0.076,0.579-0.076,0.777v0.485c0,0.926,0.114,1.814,0.336,2.633
		c0.223,0.828,0.656,1.552,1.254,2.177c0.6,0.622,1.434,1.118,2.5,1.478c1.07,0.367,2.453,0.544,4.203,0.544
		c0.764,0,1.558-0.062,2.379-0.214c0.835-0.143,1.631-0.313,2.361-0.55c0.756-0.218,1.421-0.428,2.006-0.657
		c0.592-0.222,0.994-0.422,1.244-0.642l0.482,4.797c-0.808,0.436-2.113,0.902-3.903,1.417
		C938.35,285.711,936.237,285.961,933.825,285.961 M928.076,268.66c2.35-0.072,4.488-0.225,6.418-0.453
		c1.938-0.224,3.621-0.599,5.015-1.146c1.404-0.548,2.5-1.271,3.296-2.201c0.783-0.946,1.192-2.143,1.192-3.64
		c0-0.359-0.085-0.748-0.225-1.144c-0.144-0.415-0.384-0.773-0.73-1.125c-0.34-0.345-0.808-0.629-1.408-0.839
		c-0.598-0.223-1.342-0.327-2.255-0.327c-1.41,0-2.723,0.305-3.965,0.898c-1.195,0.605-2.319,1.393-3.281,2.385
		c-0.979,0.981-1.801,2.145-2.489,3.441C928.95,265.837,928.426,267.213,928.076,268.66"/>
	<path fill="#19BCB0" d="M1002.063,253.063c1.774,0,3.269,0.277,4.511,0.798c1.208,0.544,2.215,1.291,2.943,2.228
		c0.771,0.92,1.289,2.002,1.604,3.231c0.343,1.234,0.495,2.519,0.495,3.894c0,0.896-0.049,1.867-0.209,2.875
		c-0.154,1.037-0.336,2.044-0.575,2.984l-3.871,16.101h-5.631l3.578-14.87c0.191-0.939,0.424-1.953,0.688-3.134
		c0.264-1.126,0.407-2.271,0.407-3.407c0-0.758-0.108-1.512-0.295-2.235c-0.149-0.733-0.464-1.352-0.895-1.873
		c-0.416-0.526-1.019-0.948-1.783-1.271c-0.769-0.338-1.728-0.486-2.86-0.486c-1.277,0-2.525,0.236-3.742,0.764
		c-1.205,0.501-2.225,1.001-3.022,1.541c0.078,0.558,0.145,1.123,0.223,1.653c0.053,0.565,0.078,1.081,0.078,1.603
		c0,0.937-0.063,1.871-0.205,2.816c-0.147,0.956-0.33,1.879-0.508,2.799l-3.888,16.101h-5.63l3.595-14.87
		c0.179-0.939,0.417-1.98,0.652-3.154c0.247-1.16,0.369-2.329,0.369-3.516c0-0.765-0.095-1.501-0.249-2.197
		c-0.173-0.713-0.437-1.328-0.808-1.85c-0.407-0.514-0.917-0.926-1.543-1.229c-0.646-0.312-1.48-0.46-2.482-0.46
		c-1.02,0-1.981,0.064-2.936,0.193c-0.95,0.111-1.743,0.276-2.386,0.466l-6.41,26.617h-5.633l7.263-30.241
		c1.805-0.564,3.805-1.01,5.956-1.362c2.166-0.345,4.081-0.507,5.771-0.507c1.693,0,3.117,0.277,4.304,0.893
		c1.161,0.555,2.082,1.328,2.776,2.326c0.388-0.295,0.947-0.616,1.667-0.998c0.708-0.352,1.503-0.7,2.412-1.031
		c0.899-0.297,1.905-0.581,2.975-0.842C999.835,253.188,1000.93,253.063,1002.063,253.063"/>
	<path fill="#19BCB0" d="M1037.253,285.549c-0.176-0.457-0.389-0.947-0.587-1.481c-0.211-0.564-0.375-1.139-0.497-1.729
		c-0.884,0.811-2.079,1.615-3.57,2.415c-1.48,0.807-3.323,1.208-5.5,1.208c-1.773,0-3.298-0.277-4.562-0.839
		c-1.268-0.571-2.304-1.345-3.114-2.366c-0.807-1.015-1.412-2.188-1.788-3.573c-0.394-1.368-0.573-2.879-0.573-4.526
		c0-2.704,0.446-5.334,1.356-7.927c0.911-2.572,2.266-4.892,4.092-6.902c1.804-2.015,4.08-3.635,6.833-4.896
		c2.733-1.258,5.941-1.869,9.604-1.869c1.094,0,2.373,0.125,3.815,0.348c1.465,0.261,2.701,0.652,3.742,1.229l-4.651,18.993
		c-0.196,0.927-0.362,1.803-0.508,2.661c-0.139,0.824-0.212,1.725-0.212,2.657c0,0.925,0.085,1.859,0.237,2.808
		c0.157,0.959,0.448,1.975,0.845,3.057L1037.253,285.549z M1028.248,281.188c1.705,0,3.142-0.353,4.352-1.096
		c1.217-0.724,2.265-1.566,3.145-2.542c0.04-0.678,0.125-1.406,0.219-2.138c0.105-0.757,0.221-1.49,0.38-2.264l3.636-15.017
		c-0.194-0.088-0.538-0.121-1.002-0.172c-0.457-0.057-0.866-0.064-1.229-0.064c-2.302,0-4.366,0.443-6.23,1.335
		c-1.864,0.876-3.442,2.059-4.741,3.535c-1.328,1.479-2.323,3.192-3.044,5.146c-0.686,1.947-1.066,3.992-1.066,6.146
		c0,0.828,0.094,1.69,0.26,2.559c0.16,0.871,0.459,1.65,0.875,2.305c0.428,0.657,0.977,1.212,1.697,1.629
		C1026.204,280.971,1027.113,281.188,1028.248,281.188"/>
	<path fill="#19BCB0" d="M1048.64,285.173l11.068-45.973l5.862-0.965l-6.79,28.011c1.34-0.975,2.711-2.029,4.136-3.185
		c1.408-1.142,2.75-2.298,4.011-3.408c1.28-1.124,2.451-2.206,3.504-3.245c1.084-1.021,1.945-1.912,2.638-2.678h6.656
		c-0.86,1.036-1.941,2.211-3.227,3.496c-1.332,1.303-2.697,2.59-4.163,3.911c-1.445,1.306-2.889,2.587-4.389,3.767
		c-1.459,1.227-2.764,2.244-3.933,3.079c1.082,1.027,2.185,2.218,3.282,3.624c1.117,1.383,2.177,2.85,3.201,4.408
		c1.029,1.548,1.973,3.131,2.823,4.719c0.843,1.588,1.548,3.082,2.123,4.438h-6.116c-1.406-3.255-3.098-6.277-5.06-9.015
		c-1.942-2.736-4.011-4.97-6.19-6.707l-3.803,15.722H1048.64z"/>
	<path fill="#19BCB0" d="M1091.991,285.961c-2.052,0-3.82-0.277-5.323-0.875c-1.483-0.586-2.736-1.39-3.733-2.418
		c-1.006-1.018-1.776-2.225-2.25-3.596c-0.474-1.366-0.712-2.824-0.712-4.361c0-2.813,0.428-5.537,1.261-8.154
		c0.85-2.644,2.05-4.941,3.641-6.971c1.563-2.008,3.48-3.616,5.734-4.813c2.265-1.194,4.824-1.769,7.689-1.769
		c1.655,0,3.082,0.202,4.264,0.63c1.185,0.411,2.149,1.004,2.91,1.713c0.738,0.74,1.298,1.579,1.667,2.525
		c0.35,0.934,0.548,1.916,0.548,2.92c0,1.904-0.358,3.503-1.06,4.811c-0.664,1.319-1.59,2.431-2.712,3.306
		c-1.104,0.88-2.448,1.579-3.962,2.046c-1.498,0.498-3.088,0.875-4.729,1.159c-1.62,0.271-3.259,0.473-4.941,0.574
		c-1.682,0.092-3.257,0.19-4.773,0.277c-0.025,0.304-0.036,0.579-0.036,0.777v0.485c0,0.926,0.102,1.814,0.335,2.633
		c0.211,0.828,0.628,1.552,1.244,2.177c0.584,0.622,1.432,1.118,2.5,1.478c1.067,0.367,2.463,0.544,4.195,0.544
		c0.783,0,1.565-0.062,2.397-0.214c0.823-0.143,1.616-0.313,2.361-0.55c0.761-0.218,1.423-0.428,1.997-0.657
		c0.589-0.222,1-0.422,1.239-0.642l0.497,4.797c-0.823,0.436-2.126,0.902-3.915,1.417
		C1096.53,285.711,1094.428,285.961,1091.991,285.961 M1086.271,268.66c2.331-0.072,4.467-0.225,6.396-0.453
		c1.946-0.224,3.614-0.599,5.022-1.146c1.418-0.548,2.515-1.271,3.306-2.201c0.772-0.946,1.175-2.143,1.175-3.64
		c0-0.359-0.066-0.748-0.205-1.144c-0.161-0.415-0.381-0.773-0.748-1.125c-0.325-0.345-0.806-0.629-1.416-0.839
		c-0.609-0.223-1.346-0.327-2.238-0.327c-1.403,0-2.733,0.305-3.959,0.898c-1.227,0.605-2.32,1.393-3.282,2.385
		c-0.982,0.981-1.802,2.145-2.486,3.441C1087.14,265.837,1086.633,267.213,1086.271,268.66"/>
	<path fill="#19BCB0" d="M1129.458,285.173h-5.646l7.562-31.442h5.632L1129.458,285.173z M1135.99,248.05
		c-0.921,0-1.717-0.302-2.335-0.866c-0.636-0.554-0.937-1.345-0.937-2.336c0-1.311,0.389-2.326,1.211-3.072
		c0.797-0.744,1.709-1.119,2.712-1.119c0.929,0,1.726,0.293,2.361,0.886c0.647,0.588,0.979,1.396,0.979,2.441
		c0,1.206-0.429,2.193-1.28,2.939C1137.87,247.667,1136.959,248.05,1135.99,248.05"/>
	<path fill="#19BCB0" d="M1149.647,286.028c-3.007,0-5.238-0.672-6.661-2.002c-1.408-1.317-2.105-3.272-2.105-5.807
		c0-1.65,0.295-3.763,0.845-6.343l6.479-26.929l5.86-0.953l-2.375,9.727h10.719l-1.144,4.723h-10.708l-3.333,13.917
		c-0.487,1.89-0.721,3.535-0.721,4.956c0,1.327,0.369,2.278,1.082,2.862c0.72,0.585,1.925,0.88,3.641,0.88
		c1.173,0,2.317-0.204,3.45-0.571c1.127-0.376,1.986-0.733,2.598-1.055l0.412,4.779c-0.608,0.369-1.628,0.765-3.073,1.18
		C1153.168,285.809,1151.516,286.028,1149.647,286.028"/>
	<path fill="#19BCB0" d="M1184.738,274.406l-5.931,10.767h-6.405c4.513-8.153,8.917-15.642,13.221-22.49
		c4.29-6.859,8.521-13.342,12.721-19.416h5.761c0.598,3.005,1.147,6.074,1.654,9.154c0.499,3.081,0.996,6.327,1.47,9.711
		c0.472,3.384,0.943,6.968,1.405,10.753c0.438,3.801,0.894,7.891,1.391,12.288h-5.92c-0.223-1.805-0.386-3.641-0.56-5.474
		c-0.171-1.824-0.336-3.589-0.545-5.293H1184.738z M1202.45,269.715c-0.311-3.289-0.691-6.524-1.12-9.75
		c-0.407-3.241-0.917-6.555-1.475-9.989c-1.408,2.049-3.166,4.709-5.279,7.938c-2.087,3.262-4.44,7.17-7.116,11.801H1202.45z"/>
	<path fill="#19BCB0" d="M1222.471,291.701c1.653,0,3.119-0.193,4.364-0.602c1.254-0.396,2.324-0.987,3.233-1.751
		c0.919-0.758,1.642-1.671,2.204-2.723c0.571-1.048,1.016-2.228,1.345-3.565l0.234-1.156c-0.81,0.452-1.892,0.908-3.274,1.332
		c-1.367,0.452-2.764,0.68-4.239,0.68c-3.257,0-5.771-0.826-7.515-2.465c-1.767-1.623-2.625-3.914-2.625-6.852
		c0-2.701,0.446-5.338,1.32-7.936c0.894-2.582,2.226-4.873,4.055-6.902c1.825-2.021,4.092-3.644,6.777-4.857
		c2.71-1.233,5.88-1.842,9.493-1.842c0.57,0,1.191,0.043,1.915,0.125c0.686,0.078,1.418,0.188,2.178,0.314
		c0.73,0.152,1.454,0.348,2.171,0.582c0.709,0.249,1.323,0.527,1.842,0.848l-6.602,27.514c-0.519,2.178-1.168,4.151-1.929,5.89
		c-0.767,1.713-1.805,3.19-3.135,4.406c-1.333,1.204-3.054,2.147-5.15,2.808c-2.103,0.676-4.71,1.006-7.861,1.006
		c-1.738,0-3.458-0.236-5.15-0.702c-1.692-0.467-3.118-1.035-4.286-1.725l2.113-4.72c0.919,0.684,2.163,1.241,3.685,1.67
		C1219.173,291.491,1220.773,291.701,1222.471,291.701 M1227.566,279.183c1.603,0,3.077-0.287,4.442-0.876
		c1.345-0.584,2.378-1.139,3.108-1.662l4.428-18.376c-0.4-0.081-0.868-0.169-1.396-0.251c-0.533-0.087-1.038-0.121-1.526-0.121
		c-2.172,0-4.153,0.413-5.98,1.248c-1.81,0.824-3.362,1.93-4.692,3.318c-1.317,1.387-2.319,3.012-3.049,4.839
		c-0.72,1.834-1.068,3.741-1.068,5.715c0,2.177,0.457,3.755,1.404,4.72C1224.181,278.7,1225.64,279.183,1227.566,279.183"/>
	<path fill="#19BCB0" d="M1253.748,285.173h-5.628l7.557-31.442h5.652L1253.748,285.173z M1260.282,248.05
		c-0.912,0-1.709-0.302-2.337-0.866c-0.622-0.554-0.922-1.345-0.922-2.336c0-1.311,0.388-2.326,1.213-3.072
		c0.791-0.744,1.712-1.119,2.72-1.119c0.92,0,1.726,0.293,2.354,0.886c0.642,0.588,0.98,1.396,0.98,2.441
		c0,1.206-0.439,2.193-1.288,2.939C1262.162,247.667,1261.241,248.05,1260.282,248.05"/>
	<path fill="#19BCB0" d="M1271.599,271.337c-0.211,0.876-0.402,1.745-0.614,2.603c-0.191,0.832-0.285,1.65-0.285,2.398
		c0,1.375,0.328,2.47,0.987,3.274c0.672,0.818,1.907,1.312,3.727,1.519l-1.271,4.6c-1.675-0.047-3.055-0.304-4.21-0.753
		c-1.147-0.478-2.076-1.082-2.779-1.849c-0.715-0.784-1.228-1.685-1.535-2.725c-0.313-1.043-0.497-2.205-0.497-3.456
		c0-0.926,0.09-1.899,0.25-2.899c0.167-1.018,0.385-2.066,0.657-3.158l7.616-31.69l5.862-0.965L1271.599,271.337z"/>
	<path fill="#19BCB0" d="M1292.826,285.961c-2.054,0-3.83-0.277-5.336-0.875c-1.484-0.586-2.733-1.39-3.735-2.418
		c-1-1.018-1.761-2.225-2.245-3.596c-0.483-1.366-0.73-2.824-0.73-4.361c0-2.813,0.445-5.537,1.28-8.154
		c0.847-2.644,2.062-4.941,3.641-6.971c1.578-2.008,3.479-3.616,5.743-4.813c2.253-1.194,4.812-1.769,7.676-1.769
		c1.66,0,3.071,0.202,4.269,0.63c1.192,0.411,2.164,1.004,2.902,1.713c0.746,0.74,1.3,1.579,1.673,2.525
		c0.345,0.934,0.534,1.916,0.534,2.92c0,1.904-0.336,3.503-1.046,4.811c-0.664,1.319-1.592,2.431-2.711,3.306
		c-1.119,0.88-2.447,1.579-3.955,2.046c-1.506,0.498-3.098,0.875-4.729,1.159c-1.629,0.271-3.281,0.473-4.949,0.574
		c-1.667,0.092-3.259,0.19-4.75,0.277c-0.037,0.304-0.074,0.579-0.074,0.777v0.485c0,0.926,0.125,1.814,0.352,2.633
		c0.211,0.828,0.644,1.552,1.235,2.177c0.598,0.622,1.432,1.118,2.507,1.478c1.066,0.367,2.478,0.544,4.21,0.544
		c0.77,0,1.557-0.062,2.383-0.214c0.833-0.143,1.616-0.313,2.347-0.55c0.758-0.218,1.433-0.428,2.025-0.657
		c0.57-0.222,0.987-0.422,1.207-0.642l0.51,4.797c-0.805,0.436-2.111,0.902-3.91,1.417
		C1297.364,285.711,1295.253,285.961,1292.826,285.961 M1287.081,268.66c2.347-0.072,4.488-0.225,6.403-0.453
		c1.953-0.224,3.617-0.599,5.03-1.146c1.418-0.548,2.513-1.271,3.296-2.201c0.782-0.946,1.191-2.143,1.191-3.64
		c0-0.359-0.072-0.748-0.211-1.144c-0.162-0.415-0.397-0.773-0.747-1.125c-0.33-0.345-0.81-0.629-1.418-0.839
		c-0.599-0.223-1.331-0.327-2.245-0.327c-1.395,0-2.72,0.305-3.954,0.898c-1.207,0.605-2.318,1.393-3.282,2.385
		c-0.994,0.981-1.799,2.145-2.487,3.441C1287.965,265.837,1287.439,267.213,1287.081,268.66"/>
	<path fill="#FFFFFF" d="M481.536,220.887c-27.442,0-45.502-19.545-45.502-45.249c0-24.709,18.807-45.508,45.252-45.508
		c15.289,0,24.703,4.253,33.724,11.898l-9.78,11.652c-6.764-5.76-13.41-9.4-24.568-9.4c-16.174,0-28.455,14.041-28.455,31.086
		c0,18.193,11.902,31.472,29.837,31.472c8.274,0,15.8-2.615,21.185-6.625v-16.442h-22.451v-13.413h37.387v36.873
		C509.508,214.613,497.087,220.887,481.536,220.887"/>
	<path fill="#FFFFFF" d="M594.508,219.386l-21.574-30.606h-19.319v30.606h-15.389v-87.762h39.104
		c20.188,0,32.603,10.645,32.603,27.817c0,14.553-8.658,23.32-20.947,26.723l23.694,33.222H594.508z M576.068,145.669h-22.453
		v29.461h22.597c11.01,0,18.038-5.767,18.038-14.796C594.25,150.662,587.483,145.669,576.068,145.669"/>
	<path fill="#FFFFFF" d="M670.734,220.887c-26.956,0-45.781-20.441-45.781-45.249c0-24.837,19.076-45.508,46.045-45.508
		c26.942,0,45.735,20.43,45.735,45.236C716.733,200.213,697.675,220.887,670.734,220.887 M670.734,144.28
		c-17.438,0-29.591,13.913-29.591,31.086c0,17.193,12.412,31.351,29.854,31.351c17.399,0,29.573-13.921,29.573-31.079
		C700.571,158.438,688.148,144.28,670.734,144.28"/>
	<polygon fill="#FFFFFF" points="783.061,131.363 796.097,131.363 817.668,196.689 838.622,131.624 854.782,131.624 
		824.186,220.006 810.907,220.006 789.331,156.943 767.772,220.006 754.491,220.006 723.896,131.624 740.562,131.624 
		761.504,196.689 	"/>
	<rect x="871.456" y="131.624" fill="#FFFFFF" width="15.43" height="87.762"/>
	<polygon fill="#FFFFFF" points="971.637,131.624 986.801,131.624 986.801,219.386 973.893,219.386 925.492,156.945 
		925.492,219.386 910.331,219.386 910.331,131.624 924.621,131.624 971.637,192.313 	"/>
	<path fill="#FFFFFF" d="M1050.994,220.887c-27.45,0-45.521-19.545-45.521-45.249c0-24.709,18.816-45.508,45.273-45.508
		c15.288,0,24.703,4.253,33.718,11.898l-9.772,11.652c-6.768-5.76-13.422-9.4-24.567-9.4c-16.194,0-28.472,14.041-28.472,31.086
		c0,18.193,11.916,31.472,29.854,31.472c8.26,0,15.781-2.615,21.178-6.625v-16.442h-22.447v-13.413h37.374v36.873
		C1078.954,214.613,1066.531,220.887,1050.994,220.887"/>
	<rect x="1104.899" y="172.361" fill="#FFFFFF" width="16.677" height="17.175"/>
	<polygon fill="#19BCB0" points="1156.802,182.404 1156.802,219.376 1141.381,219.376 1141.381,131.624 1156.802,131.624 
		1156.802,168.112 1198.696,168.112 1198.696,131.624 1214.104,131.624 1214.104,219.376 1198.696,219.376 1198.696,182.404 	"/>
	<path fill="#19BCB0" d="M1292.958,219.386l-21.564-30.606h-19.304v30.606h-15.402v-87.762h39.121
		c20.175,0,32.586,10.645,32.586,27.817c0,14.553-8.647,23.32-20.935,26.723l23.699,33.222H1292.958z M1274.551,145.669h-22.461
		v29.461h22.578c11.016,0,18.055-5.767,18.055-14.796C1292.723,150.662,1285.956,145.669,1274.551,145.669"/>
	<path fill="#19BCB0" d="M392.148,186.484c0-66.648-54.021-120.631-120.614-120.631c-63.456,0-120.625,50.841-120.625,120.631
		c0,14.141,2.551,27.662,7.032,40.277c18.105,43.94,55.495,68.535,101.521,68.535c47.512,0,82.706-37.472,82.706-86.646
		c0-3.395-0.196-6.714-0.573-9.96c-3.909-33.723-27.855-59.411-65.281-59.38c-37.528,0-59.566,25.285-59.566,51.828
		c0,24.31,17.051,44.199,42.715,44.439c8.592,0.064,17.05-2.312,24-7.014l-5.387-17.934l-18.756,5.213l-5.591-19.229l43.067-12.193
		l15.278,52.219l-5.252,5.279c-12.526,12.545-30.126,18.839-47.935,18.839c-37.082,0-67.478-27.932-67.478-68.761
		c0-42.454,34.407-77.953,85.465-77.953c50.761,0,90.609,41.752,90.609,96.894c0,35.863-14.517,64.972-39.314,82.006
		C366.236,272.669,392.148,232.611,392.148,186.484"/>
</g>
</svg>
