<?xml version="1.0" encoding="utf-8"?>
<!-- Generator: Adobe Illustrator 16.0.0, SVG Export Plug-In . SVG Version: 6.00 Build 0)  -->
<!DOCTYPE svg PUBLIC "-//W3C//DTD SVG 1.1//EN" "http://www.w3.org/Graphics/SVG/1.1/DTD/svg11.dtd">
<svg version="1.1" id="Capa_1" xmlns="http://www.w3.org/2000/svg" xmlns:xlink="http://www.w3.org/1999/xlink" x="0px" y="0px"
	 width="161.151px" height="149.64px" viewBox="0 0 161.151 149.64" enable-background="new 0 0 161.151 149.64"
	 xml:space="preserve">
<g>
	<path fill="#19B9DF" d="M129.94,74.819c0,26.952-21.849,48.802-48.801,48.802s-48.802-21.85-48.802-48.802
		c0-26.952,21.849-48.801,48.802-48.801S129.94,47.868,129.94,74.819"/>
	<path fill="#2D2E82" d="M129.94,74.819c0,26.952-21.849,48.802-48.801,48.802s-48.802-21.85-48.802-48.802"/>
	<path fill="#2A3186" d="M57.721,44.589h10.173c6.001,0,9.866,3.086,9.866,8.342v0.067c0,5.596-4.306,8.545-10.206,8.545h-3.255
		v6.783h-6.578V44.589z M67.418,56.389c2.341,0,3.766-1.22,3.766-3.085v-0.068c0-2.034-1.425-3.12-3.799-3.12h-3.086v6.273H67.418z"
		/>
	<path fill="#2A3186" d="M83.837,64.799l3.662-4.375c2.342,1.865,4.951,2.848,7.697,2.848c1.764,0,2.713-0.61,2.713-1.627v-0.068
		c0-0.983-0.779-1.526-4.001-2.272c-5.052-1.152-8.952-2.577-8.952-7.46v-0.068c0-4.407,3.492-7.595,9.19-7.595
		c4.034,0,7.188,1.085,9.765,3.153l-3.289,4.646c-2.171-1.526-4.543-2.34-6.646-2.34c-1.595,0-2.374,0.679-2.374,1.526v0.068
		c0,1.085,0.814,1.559,4.104,2.306c5.459,1.187,8.85,2.95,8.85,7.392v0.068c0,4.849-3.832,7.731-9.598,7.731
		C90.755,68.732,86.755,67.41,83.837,64.799"/>
	<path fill="#FFFFFF" d="M77.041,104.088h-4.584l-3.738-9.894h-6.101v9.894h-4.34V80.016h10.441c2.903,0,5.037,0.656,6.4,1.966
		c1.364,1.312,2.046,3.007,2.046,5.088c0,3.093-1.446,5.22-4.338,6.384L77.041,104.088z M62.618,90.719h5.395
		c1.562,0,2.727-0.328,3.492-0.986c0.763-0.659,1.146-1.564,1.146-2.716c0-1.058-0.376-1.914-1.129-2.565
		c-0.753-0.652-1.805-0.979-3.157-0.979h-5.747V90.719z"/>
	<polygon fill="#FFFFFF" points="104,104.09 99.662,104.09 99.662,93.632 90.474,93.632 90.474,104.09 86.136,104.09 86.136,80.019 
		90.474,80.019 90.474,89.912 99.662,89.912 99.662,80.019 104,80.019 	"/>
	<path fill="#FFFFFF" d="M61.315,108.959c-0.314-0.242-0.742-0.373-1.153-0.373c-0.977,0-1.724,0.711-1.724,1.551
		c0,0.832,0.74,1.541,1.712,1.541c0.429,0,0.841-0.141,1.165-0.392v0.558c-0.336,0.172-0.766,0.269-1.146,0.269
		c-1.246,0-2.276-0.862-2.276-1.96c0-1.123,1.036-1.999,2.321-1.999c0.381,0,0.77,0.08,1.101,0.257V108.959z"/>
	<path fill="#FFFFFF" d="M67.386,110.129c0,1.129-1.024,1.98-2.286,1.98c-1.262,0-2.287-0.852-2.287-1.98
		c0-1.088,1.037-1.979,2.287-1.979S67.386,109.041,67.386,110.129 M66.841,110.129c0-0.835-0.717-1.535-1.741-1.535
		c-1.025,0-1.742,0.7-1.742,1.535c0,0.866,0.797,1.537,1.742,1.537C66.043,111.666,66.841,110.995,66.841,110.129"/>
	<polygon fill="#FFFFFF" points="69.018,108.059 72.295,111.045 72.295,108.24 72.839,108.24 72.839,112.193 69.563,109.207 
		69.563,112.037 69.018,112.037 	"/>
	<path fill="#FFFFFF" d="M76.714,108.959c-0.163-0.236-0.37-0.357-0.7-0.357c-0.349,0-0.731,0.207-0.731,0.539
		c0,0.297,0.337,0.453,0.608,0.543l0.313,0.106c0.618,0.212,1.083,0.509,1.083,1.144c0,0.689-0.615,1.184-1.396,1.184
		c-0.705,0-1.256-0.454-1.349-1.063l0.55-0.102c-0.005,0.418,0.377,0.721,0.846,0.721c0.468,0,0.804-0.343,0.804-0.74
		c0-0.408-0.375-0.584-0.752-0.721l-0.3-0.109c-0.499-0.188-0.951-0.434-0.951-0.963c0-0.614,0.626-0.982,1.285-0.982
		c0.487,0,0.885,0.207,1.124,0.574L76.714,108.959z"/>
	<path fill="#FFFFFF" d="M79.508,108.239v2.241c0,0.619,0.216,1.193,1.055,1.193c0.839,0,1.054-0.574,1.054-1.193v-2.241h0.542
		v2.402c0,0.836-0.595,1.476-1.596,1.476c-1.002,0-1.598-0.64-1.598-1.476v-2.402H79.508z"/>
	<polygon fill="#FFFFFF" points="84.615,111.6 85.941,111.6 85.941,112.032 84.071,112.032 84.071,108.235 84.615,108.235 	"/>
	<polygon fill="#FFFFFF" points="88.46,112.029 87.916,112.029 87.916,108.664 86.878,108.664 86.878,108.232 89.496,108.232 
		89.496,108.664 88.46,108.664 	"/>
	<rect x="91.064" y="108.232" fill="#FFFFFF" width="0.544" height="3.797"/>
	<polygon fill="#FFFFFF" points="93.53,108.059 96.806,111.045 96.806,108.24 97.351,108.24 97.351,112.193 94.075,109.207 
		94.075,112.037 93.53,112.037 	"/>
	<path fill="#FFFFFF" d="M103.259,110.119v0.152c0,1.042-0.844,1.843-2.065,1.843s-2.205-0.917-2.205-1.969
		c0-1.093,1.007-1.99,2.265-1.99c0.676,0,1.348,0.267,1.775,0.735l-0.382,0.318c-0.312-0.373-0.841-0.621-1.372-0.621
		c-0.977,0-1.743,0.69-1.743,1.541c0,0.797,0.752,1.551,1.698,1.551c0.676,0,1.406-0.508,1.428-1.127h-1.127v-0.434H103.259z"/>
	
		<line fill="none" stroke="#FFFFFF" stroke-width="1.017" stroke-miterlimit="10" x1="32.337" y1="74.819" x2="129.941" y2="74.819"/>
</g>
</svg>
