<?xml version="1.0" encoding="utf-8"?>
<!-- Generator: Adobe Illustrator 16.0.0, SVG Export Plug-In . SVG Version: 6.00 Build 0)  -->
<!DOCTYPE svg PUBLIC "-//W3C//DTD SVG 1.1//EN" "http://www.w3.org/Graphics/SVG/1.1/DTD/svg11.dtd">
<svg version="1.1" id="Capa_1" xmlns="http://www.w3.org/2000/svg" xmlns:xlink="http://www.w3.org/1999/xlink" x="0px" y="0px"
	 width="277.333px" height="254px" viewBox="0 0 277.333 254" enable-background="new 0 0 277.333 254" xml:space="preserve">
<path fill="#19BCB0" d="M268.729,134.454c0-66.893-54.223-121.072-121.058-121.072c-63.689,0-121.067,51.028-121.067,121.072
	c0,14.192,2.561,27.764,7.058,40.426c18.171,44.099,55.697,68.785,101.891,68.785c47.689,0,83.009-37.609,83.009-86.965
	c0-3.405-0.197-6.737-0.573-9.995c-3.926-33.846-27.957-59.628-65.52-59.598c-37.667,0-59.787,25.379-59.787,52.02
	c0,24.396,17.113,44.36,42.871,44.602c8.624,0.063,17.113-2.32,24.09-7.041l-5.409-17.999l-18.823,5.233l-5.611-19.299
	l43.224-12.238l15.337,52.408l-5.273,5.3C170.512,202.684,152.85,209,134.976,209c-37.219,0-67.724-28.034-67.724-69.012
	c0-42.611,34.532-78.238,85.777-78.238c50.946,0,90.938,41.904,90.938,97.248c0,35.994-14.57,65.209-39.456,82.303
	C242.72,220.953,268.729,180.75,268.729,134.454"/>
</svg>
