<?xml version="1.0" encoding="utf-8"?>
<!-- Generator: Adobe Illustrator 16.0.0, SVG Export Plug-In . SVG Version: 6.00 Build 0)  -->
<!DOCTYPE svg PUBLIC "-//W3C//DTD SVG 1.1//EN" "http://www.w3.org/Graphics/SVG/1.1/DTD/svg11.dtd">
<svg version="1.1" id="Capa_1" xmlns="http://www.w3.org/2000/svg" xmlns:xlink="http://www.w3.org/1999/xlink" x="0px" y="0px"
	 width="108.25px" height="27.5px" viewBox="0 0 108.25 27.5" enable-background="new 0 0 108.25 27.5" xml:space="preserve">
<g>
	<path fill="#FFFFFF" d="M25.19,22.21c-0.03,0.151-0.045,0.321-0.045,0.507c0,0.192,0.015,0.33,0.045,0.421
		c0.045,0.135-0.019,0.287-0.193,0.45c-0.173,0.168-0.479,0.25-0.915,0.25c-0.15,0-0.363-0.044-0.635-0.135
		c-0.27-0.09-0.529-0.237-0.778-0.44c-0.248-0.204-0.461-0.468-0.635-0.793c-0.173-0.323-0.23-0.712-0.169-1.165
		c0.029-0.285,0.173-0.779,0.43-1.48c0.258-0.701,0.561-1.529,0.916-2.479c0.354-0.949,0.738-1.993,1.154-3.133
		c0.415-1.138,0.795-2.288,1.142-3.449c-0.271,0.406-0.628,0.941-1.075,1.607c-0.445,0.662-0.926,1.393-1.447,2.192
		s-1.052,1.63-1.594,2.489c-0.543,0.859-1.05,1.688-1.516,2.488c-0.468,0.799-0.868,1.525-1.2,2.184
		c-0.331,0.654-0.542,1.18-0.632,1.57c0.045,0.135-0.021,0.287-0.193,0.453c-0.173,0.168-0.479,0.249-0.916,0.249
		c-0.136,0-0.32-0.03-0.555-0.091c-0.233-0.06-0.456-0.17-0.668-0.328c-0.21-0.158-0.383-0.38-0.519-0.668
		c-0.137-0.285-0.174-0.654-0.114-1.107c0.031-0.211,0.116-0.566,0.262-1.063c0.143-0.499,0.328-1.097,0.554-1.8
		c0.227-0.699,0.479-1.478,0.757-2.328c0.279-0.853,0.563-1.743,0.849-2.669c0.286-0.93,0.569-1.875,0.849-2.84
		c0.279-0.966,0.532-1.908,0.758-2.829c-0.498,0.815-1.097,1.759-1.799,2.829c-0.701,1.069-1.463,2.179-2.284,3.324
		c-0.822,1.146-1.685,2.273-2.589,3.383c-0.906,1.107-1.804,2.1-2.693,2.975c-0.89,0.874-1.748,1.58-2.578,2.115
		s-1.591,0.803-2.285,0.803c-0.514,0-0.936-0.053-1.267-0.158c-0.333-0.106-0.596-0.229-0.792-0.373
		c-0.196-0.145-0.332-0.295-0.407-0.455c-0.075-0.156-0.105-0.289-0.091-0.394c0.016-0.104,0.054-0.17,0.114-0.192
		c0.061-0.023,0.134-0.023,0.225,0c0.092,0.022,0.2,0.053,0.329,0.089c0.127,0.04,0.268,0.058,0.42,0.058
		c0.646,0,1.352-0.215,2.113-0.645s1.546-1.004,2.354-1.719c0.807-0.717,1.624-1.547,2.454-2.488c0.828-0.943,1.64-1.92,2.431-2.93
		c0.791-1.011,1.559-2.029,2.296-3.055c0.739-1.023,1.413-1.981,2.025-2.871c0.611-0.89,1.153-1.683,1.628-2.377
		c0.476-0.693,0.85-1.213,1.12-1.561c0-0.076,0.007-0.135,0.022-0.181c0.031-0.211,0.15-0.293,0.362-0.249
		c0.017-0.014,0.029-0.022,0.046-0.022c0.148,0,0.264,0.046,0.34,0.136c0.225,0.105,0.477,0.265,0.756,0.475
		c0.279,0.212,0.533,0.439,0.759,0.68c0.226,0.241,0.415,0.482,0.565,0.723c0.149,0.242,0.217,0.447,0.203,0.612
		c-0.014,0.136-0.095,0.429-0.237,0.882c-0.143,0.451-0.316,0.996-0.521,1.628c-0.203,0.635-0.422,1.316-0.656,2.048
		c-0.233,0.73-0.456,1.443-0.667,2.138c-0.212,0.694-0.396,1.331-0.554,1.911c-0.158,0.581-0.253,1.029-0.283,1.348
		c-0.045,0.074-0.082,0.194-0.113,0.361c0.482-0.74,1.018-1.565,1.607-2.479c0.588-0.911,1.184-1.85,1.785-2.816
		c0.605-0.964,1.199-1.938,1.788-2.917c0.588-0.98,1.13-1.916,1.629-2.806c0.016-0.12,0.03-0.23,0.045-0.328
		c0.013-0.098,0.029-0.198,0.045-0.305c0.016-0.181,0.103-0.271,0.26-0.271c0.159,0,0.351,0.061,0.578,0.18
		C27.814,5.5,28.053,5.666,28.3,5.877c0.251,0.211,0.48,0.434,0.69,0.669c0.212,0.231,0.377,0.464,0.499,0.688
		c0.12,0.227,0.173,0.416,0.157,0.566c-0.015,0.135-0.12,0.479-0.316,1.027c-0.195,0.553-0.445,1.23-0.746,2.038
		c-0.303,0.806-0.63,1.706-0.984,2.702c-0.355,0.995-0.695,2.002-1.018,3.02c-0.325,1.019-0.614,2.018-0.871,2.998
		C25.453,20.566,25.281,21.44,25.19,22.21z"/>
	<path fill="#FFFFFF" d="M39.465,16.193c0.104-0.137,0.195-0.186,0.27-0.148c0.076,0.039,0.132,0.111,0.171,0.217
		c0.036,0.104,0.059,0.217,0.067,0.338c0.008,0.122-0.004,0.204-0.033,0.248c-0.166,0.227-0.42,0.564-0.758,1.009
		c-0.339,0.444-0.74,0.935-1.2,1.469c-0.46,0.537-0.964,1.079-1.515,1.629c-0.551,0.552-1.116,1.057-1.697,1.516
		c-0.58,0.459-1.161,0.834-1.741,1.118c-0.581,0.288-1.128,0.434-1.641,0.434c-0.378,0-0.772-0.104-1.187-0.308
		c-0.415-0.203-0.795-0.46-1.144-0.769c-0.347-0.31-0.63-0.637-0.849-0.984c-0.218-0.348-0.313-0.656-0.283-0.927
		c0.062-0.679,0.201-1.358,0.419-2.036c0.22-0.678,0.49-1.323,0.815-1.935c0.324-0.61,0.683-1.183,1.074-1.72
		c0.392-0.533,0.795-0.994,1.21-1.379c0.415-0.387,0.826-0.69,1.233-0.916c0.406-0.227,0.776-0.339,1.107-0.339
		c0.424,0,0.83,0.112,1.223,0.339c0.393,0.226,0.727,0.508,1.007,0.849c0.278,0.338,0.497,0.704,0.655,1.097
		c0.158,0.391,0.23,0.746,0.215,1.063c-0.03,0.316-0.178,0.706-0.441,1.166c-0.264,0.459-0.6,0.896-1.006,1.312
		c-0.407,0.415-0.859,0.772-1.358,1.073c-0.497,0.303-1.002,0.453-1.515,0.453c-0.303,0-0.57-0.018-0.803-0.057
		c-0.233-0.038-0.449-0.094-0.645-0.169c-0.152,0.406-0.271,0.788-0.362,1.142c-0.091,0.355-0.14,0.664-0.147,0.928
		c-0.008,0.265,0.038,0.475,0.136,0.633c0.099,0.158,0.253,0.238,0.465,0.238c0.466,0,0.956-0.116,1.47-0.351
		c0.512-0.233,1.029-0.54,1.55-0.915c0.519-0.379,1.032-0.809,1.538-1.291c0.504-0.482,0.982-0.968,1.438-1.459
		c0.451-0.488,0.869-0.957,1.253-1.402C38.843,16.913,39.177,16.524,39.465,16.193z M34.713,14.383
		c-0.166,0-0.358,0.099-0.577,0.293c-0.218,0.197-0.452,0.462-0.7,0.794c-0.248,0.331-0.502,0.716-0.758,1.153
		c-0.258,0.438-0.506,0.89-0.746,1.357c0.587-0.137,1.105-0.399,1.549-0.793c0.445-0.393,0.8-0.795,1.063-1.209
		c0.265-0.415,0.416-0.785,0.452-1.109C35.033,14.545,34.939,14.383,34.713,14.383z"/>
	<path fill="#FFFFFF" d="M47.879,16.328c0.12-0.182,0.219-0.248,0.294-0.203s0.133,0.137,0.169,0.271
		c0.037,0.136,0.054,0.284,0.046,0.44c-0.009,0.159-0.026,0.26-0.057,0.306c-0.15,0.226-0.354,0.564-0.61,1.02
		c-0.258,0.451-0.555,0.945-0.894,1.481c-0.339,0.535-0.705,1.085-1.098,1.65c-0.392,0.565-0.788,1.085-1.187,1.561
		c-0.401,0.476-0.799,0.871-1.201,1.188c-0.397,0.317-0.771,0.499-1.118,0.543c-0.016,0-0.034,0.003-0.057,0.011
		s-0.049,0.012-0.079,0.012c-0.12,0-0.332-0.022-0.634-0.066c-0.303-0.047-0.61-0.137-0.927-0.271
		c-0.316-0.139-0.588-0.325-0.814-0.566c-0.226-0.242-0.324-0.565-0.294-0.974c0.029-0.406,0.166-0.888,0.408-1.446
		c0.239-0.559,0.496-1.117,0.768-1.676c0.271-0.557,0.521-1.076,0.746-1.561c0.226-0.482,0.348-0.837,0.362-1.063
		c0.031-0.271-0.037-0.51-0.203-0.713c-0.165-0.203-0.399-0.412-0.701-0.622c-0.212,0.332-0.419,0.634-0.623,0.905
		c-0.203,0.271-0.364,0.49-0.486,0.655c-0.044,0.075-0.104,0.091-0.18,0.046c-0.076-0.046-0.144-0.118-0.204-0.215
		c-0.061-0.098-0.102-0.199-0.124-0.306c-0.023-0.104-0.01-0.194,0.034-0.271c0.119-0.151,0.249-0.337,0.383-0.555
		c0.138-0.219,0.296-0.457,0.477-0.713c-0.257-0.18-0.514-0.377-0.77-0.59c-0.256-0.208-0.478-0.458-0.667-0.744
		c-0.189-0.287-0.332-0.611-0.43-0.975c-0.099-0.359-0.125-0.783-0.08-1.266c0.046-0.588,0.23-1.131,0.555-1.629
		c0.325-0.498,0.696-0.932,1.12-1.301c0.421-0.369,0.855-0.656,1.3-0.859c0.445-0.203,0.819-0.305,1.12-0.305
		c0.332,0,0.607,0.17,0.826,0.508c0.219,0.341,0.289,0.916,0.214,1.73c-0.061,0.664-0.229,1.354-0.509,2.07
		c-0.279,0.718-0.599,1.414-0.962,2.093c0.288,0.226,0.601,0.435,0.939,0.622c0.339,0.189,0.647,0.389,0.928,0.598
		c0.278,0.213,0.505,0.455,0.679,0.726c0.173,0.271,0.245,0.61,0.214,1.018c-0.014,0.181-0.1,0.506-0.259,0.973
		c-0.158,0.468-0.34,0.987-0.544,1.563c-0.203,0.572-0.413,1.151-0.634,1.741c-0.218,0.588-0.402,1.1-0.553,1.537
		c-0.122,0.424-0.083,0.635,0.112,0.635c0.166,0,0.374-0.126,0.624-0.375c0.247-0.25,0.521-0.572,0.823-0.973
		c0.303-0.398,0.623-0.851,0.962-1.356c0.34-0.505,0.675-1.019,1.007-1.54c0.331-0.52,0.652-1.021,0.961-1.503
		C47.362,17.113,47.638,16.69,47.879,16.328z M40.73,11.532c-0.03,0.393,0,0.735,0.091,1.03c0.09,0.293,0.226,0.554,0.407,0.779
		c0.33-0.602,0.622-1.221,0.87-1.855c0.249-0.633,0.396-1.221,0.442-1.764c0.046-0.482,0.029-0.807-0.046-0.971
		c-0.075-0.167-0.196-0.25-0.36-0.25c-0.136,0-0.284,0.104-0.442,0.314c-0.158,0.213-0.307,0.474-0.44,0.781
		c-0.137,0.312-0.254,0.637-0.351,0.984C40.803,10.931,40.745,11.246,40.73,11.532z"/>
	<path fill="#FFFFFF" d="M54.666,15.649c-0.076,0.075-0.167,0.067-0.272-0.021c-0.105-0.091-0.245-0.208-0.418-0.353
		c-0.175-0.143-0.394-0.277-0.655-0.406c-0.266-0.127-0.592-0.193-0.984-0.193c-0.136,0-0.299,0.119-0.488,0.352
		c-0.188,0.236-0.388,0.547-0.599,0.932c-0.21,0.386-0.423,0.823-0.634,1.315c-0.21,0.493-0.407,0.989-0.588,1.497
		c-0.181,0.506-0.331,1.01-0.451,1.508c-0.122,0.5-0.197,0.938-0.227,1.316c-0.031,0.258-0.027,0.465,0.011,0.624
		c0.039,0.159,0.094,0.278,0.17,0.362s0.166,0.135,0.271,0.159c0.105,0.022,0.213,0.034,0.317,0.034
		c0.257,0,0.569-0.116,0.938-0.351c0.369-0.233,0.759-0.536,1.166-0.905c0.406-0.369,0.832-0.791,1.277-1.266
		c0.444-0.477,0.875-0.953,1.289-1.438c0.415-0.482,0.808-0.945,1.177-1.391c0.37-0.444,0.697-0.834,0.984-1.164
		c0.104-0.137,0.196-0.187,0.271-0.148c0.074,0.037,0.136,0.109,0.182,0.215c0.044,0.105,0.074,0.219,0.09,0.34
		c0.015,0.121,0.006,0.203-0.022,0.248c-0.166,0.241-0.412,0.58-0.735,1.018c-0.325,0.438-0.709,0.92-1.153,1.449
		c-0.445,0.527-0.929,1.065-1.449,1.617c-0.52,0.551-1.062,1.051-1.627,1.5c-0.567,0.451-1.133,0.816-1.697,1.097
		c-0.566,0.282-1.112,0.425-1.64,0.425c-0.544,0-1.022-0.1-1.437-0.296c-0.416-0.196-0.759-0.44-1.03-0.734
		c-0.271-0.296-0.474-0.604-0.61-0.929c-0.136-0.324-0.188-0.622-0.157-0.893c0.029-0.348,0.131-0.799,0.304-1.357
		c0.175-0.559,0.396-1.152,0.668-1.777c0.271-0.623,0.584-1.254,0.939-1.889c0.353-0.633,0.73-1.205,1.131-1.719
		c0.399-0.512,0.807-0.927,1.22-1.244c0.415-0.315,0.818-0.474,1.211-0.474c0.815,0,1.456,0.14,1.923,0.418
		c0.468,0.278,0.814,0.591,1.041,0.938c0.227,0.348,0.351,0.679,0.373,0.997C54.767,15.379,54.739,15.574,54.666,15.649z"/>
	<path fill="#FFFFFF" d="M69.458,16.283c0.121-0.181,0.22-0.249,0.294-0.203c0.075,0.045,0.129,0.135,0.159,0.271
		c0.029,0.135,0.044,0.282,0.044,0.441c0,0.158-0.021,0.268-0.066,0.328c-0.152,0.225-0.366,0.549-0.645,0.973
		c-0.279,0.422-0.596,0.881-0.95,1.379c-0.354,0.499-0.743,1.012-1.166,1.538c-0.422,0.53-0.845,1.011-1.267,1.448
		s-0.84,0.811-1.254,1.119c-0.416,0.31-0.797,0.494-1.144,0.553c-0.137,0.047-0.342,0.031-0.622-0.045
		c-0.278-0.073-0.563-0.205-0.849-0.395c-0.286-0.188-0.527-0.426-0.723-0.712c-0.197-0.286-0.279-0.618-0.249-0.995
		c0-0.121,0.022-0.268,0.067-0.442s0.105-0.364,0.182-0.575c-0.304,0.377-0.618,0.746-0.95,1.107s-0.676,0.687-1.031,0.973
		c-0.354,0.287-0.712,0.517-1.072,0.689c-0.364,0.173-0.718,0.261-1.064,0.261c-0.181,0-0.411-0.057-0.689-0.169
		c-0.278-0.114-0.543-0.281-0.793-0.498c-0.248-0.221-0.455-0.486-0.621-0.804c-0.166-0.316-0.232-0.679-0.204-1.086
		c0.03-0.271,0.125-0.622,0.284-1.053c0.157-0.429,0.354-0.906,0.587-1.437c0.234-0.526,0.479-1.073,0.735-1.639
		c0.257-0.564,0.502-1.113,0.736-1.641c0.232-0.527,0.43-1.02,0.587-1.481c0.159-0.459,0.252-0.841,0.283-1.142
		c0.029-0.271,0.181-0.401,0.452-0.385c0.272,0.015,0.558,0.113,0.859,0.295c0.303,0.18,0.572,0.402,0.814,0.666
		s0.354,0.509,0.339,0.734c-0.015,0.152-0.117,0.461-0.304,0.928c-0.189,0.469-0.415,1.012-0.681,1.629
		c-0.264,0.619-0.542,1.263-0.837,1.934c-0.293,0.673-0.553,1.287-0.78,1.846c-0.226,0.558-0.389,1.021-0.485,1.391
		c-0.099,0.369-0.087,0.553,0.033,0.553c0.317,0,0.713-0.184,1.188-0.553c0.477-0.369,0.974-0.84,1.494-1.414
		c0.52-0.572,1.032-1.218,1.537-1.932c0.506-0.719,0.954-1.416,1.347-2.096c0.347-0.814,0.653-1.563,0.917-2.25
		c0.262-0.686,0.41-1.225,0.44-1.617c0.014-0.271,0.159-0.399,0.43-0.385c0.271,0.015,0.558,0.113,0.859,0.295
		c0.302,0.181,0.573,0.402,0.813,0.666c0.242,0.265,0.354,0.51,0.341,0.736c-0.016,0.135-0.08,0.377-0.192,0.723
		c-0.113,0.347-0.257,0.766-0.43,1.256c-0.175,0.49-0.37,1.021-0.59,1.594c-0.218,0.574-0.434,1.143-0.643,1.709
		c-0.213,0.566-0.416,1.104-0.613,1.617c-0.195,0.513-0.354,0.949-0.475,1.313c-0.073,0.332-0.021,0.496,0.158,0.496
		c0.166,0,0.379-0.108,0.635-0.327c0.256-0.218,0.543-0.513,0.859-0.882s0.651-0.784,1.007-1.244
		c0.354-0.461,0.705-0.932,1.051-1.414c0.347-0.482,0.68-0.953,0.996-1.414C68.915,17.056,69.201,16.645,69.458,16.283z"/>
	<path fill="#FFFFFF" d="M78.01,16.328c0.119-0.182,0.218-0.248,0.293-0.203s0.132,0.137,0.17,0.271
		c0.037,0.136,0.052,0.284,0.045,0.44c-0.008,0.159-0.025,0.26-0.057,0.306c-0.15,0.226-0.354,0.564-0.61,1.02
		c-0.257,0.451-0.554,0.945-0.894,1.481c-0.34,0.535-0.705,1.085-1.097,1.65s-0.788,1.085-1.188,1.561s-0.8,0.871-1.199,1.188
		c-0.398,0.317-0.772,0.499-1.119,0.543c-0.016,0-0.034,0.003-0.057,0.011s-0.05,0.012-0.08,0.012c-0.121,0-0.331-0.022-0.633-0.066
		c-0.302-0.047-0.61-0.137-0.927-0.271c-0.316-0.139-0.589-0.325-0.814-0.566c-0.227-0.242-0.324-0.565-0.295-0.974
		c0.03-0.406,0.166-0.888,0.406-1.446c0.242-0.559,0.498-1.117,0.771-1.676c0.271-0.557,0.521-1.076,0.746-1.561
		c0.226-0.482,0.348-0.837,0.361-1.063c0.031-0.271-0.037-0.51-0.203-0.713s-0.399-0.412-0.7-0.622
		c-0.213,0.332-0.42,0.634-0.623,0.905c-0.204,0.271-0.366,0.49-0.486,0.655c-0.045,0.075-0.105,0.091-0.182,0.046
		c-0.074-0.046-0.142-0.118-0.203-0.215c-0.06-0.098-0.101-0.199-0.124-0.306c-0.022-0.104-0.013-0.194,0.033-0.271
		c0.122-0.151,0.249-0.337,0.386-0.555c0.137-0.219,0.294-0.457,0.475-0.713c-0.257-0.18-0.513-0.377-0.77-0.59
		c-0.256-0.208-0.479-0.458-0.666-0.744c-0.189-0.287-0.333-0.611-0.43-0.975c-0.099-0.359-0.125-0.783-0.08-1.266
		c0.045-0.588,0.23-1.131,0.555-1.629s0.697-0.932,1.12-1.301c0.422-0.369,0.854-0.656,1.3-0.859s0.818-0.305,1.12-0.305
		c0.331,0,0.606,0.17,0.825,0.508c0.218,0.341,0.289,0.916,0.214,1.73c-0.059,0.664-0.229,1.354-0.508,2.07
		c-0.279,0.718-0.601,1.414-0.962,2.093c0.287,0.226,0.6,0.435,0.938,0.622c0.34,0.189,0.647,0.389,0.927,0.598
		c0.28,0.213,0.506,0.455,0.679,0.726c0.175,0.271,0.247,0.61,0.216,1.018c-0.014,0.181-0.101,0.506-0.26,0.973
		c-0.157,0.468-0.339,0.987-0.544,1.563c-0.202,0.572-0.413,1.151-0.632,1.741c-0.22,0.588-0.403,1.1-0.554,1.537
		c-0.121,0.424-0.084,0.635,0.112,0.635c0.165,0,0.373-0.126,0.622-0.375c0.249-0.25,0.523-0.572,0.825-0.973
		c0.302-0.398,0.623-0.851,0.963-1.356c0.338-0.505,0.673-1.019,1.006-1.54c0.331-0.52,0.651-1.021,0.96-1.503
		C77.493,17.113,77.768,16.69,78.01,16.328z M70.86,11.532c-0.03,0.393,0,0.735,0.091,1.03c0.091,0.293,0.227,0.554,0.407,0.779
		c0.331-0.602,0.623-1.221,0.872-1.855c0.248-0.633,0.395-1.221,0.441-1.764c0.045-0.482,0.029-0.807-0.047-0.971
		c-0.074-0.167-0.195-0.25-0.361-0.25c-0.136,0-0.282,0.104-0.44,0.314c-0.159,0.213-0.306,0.474-0.441,0.781
		c-0.136,0.312-0.252,0.637-0.353,0.984C70.933,10.931,70.876,11.246,70.86,11.532z"/>
	<path fill="#FFFFFF" d="M84.637,16.306c0.12-0.181,0.215-0.249,0.283-0.203c0.067,0.044,0.113,0.136,0.136,0.271
		c0.022,0.137,0.026,0.283,0.011,0.44c-0.016,0.159-0.038,0.261-0.066,0.308c-0.152,0.241-0.363,0.567-0.634,0.982
		c-0.272,0.416-0.589,0.871-0.951,1.369c-0.36,0.499-0.75,1.007-1.165,1.527c-0.414,0.52-0.836,1-1.266,1.436
		c-0.43,0.439-0.849,0.8-1.256,1.087c-0.406,0.286-0.784,0.45-1.133,0.499h-0.135c-0.121,0-0.332-0.024-0.633-0.068
		c-0.303-0.047-0.61-0.133-0.927-0.262c-0.316-0.128-0.588-0.313-0.815-0.554c-0.226-0.241-0.324-0.565-0.295-0.974
		c0.017-0.271,0.111-0.654,0.283-1.153c0.176-0.497,0.385-1.052,0.634-1.663c0.249-0.607,0.514-1.24,0.791-1.889
		c0.28-0.646,0.54-1.26,0.78-1.831c0.242-0.574,0.446-1.072,0.612-1.494c0.165-0.421,0.256-0.706,0.271-0.859
		c0.016-0.271,0.159-0.398,0.43-0.386c0.271,0.016,0.557,0.115,0.859,0.295c0.302,0.182,0.577,0.403,0.825,0.669
		c0.25,0.263,0.366,0.507,0.351,0.733c-0.015,0.137-0.075,0.365-0.182,0.689c-0.104,0.326-0.235,0.709-0.394,1.155
		c-0.16,0.444-0.338,0.927-0.533,1.447c-0.195,0.52-0.393,1.038-0.587,1.551c-0.197,0.513-0.383,1.006-0.556,1.48
		c-0.172,0.476-0.32,0.886-0.441,1.233c-0.12,0.406-0.082,0.61,0.115,0.61c0.165,0,0.383-0.11,0.655-0.328
		c0.271-0.219,0.573-0.509,0.904-0.871c0.333-0.362,0.683-0.769,1.053-1.222c0.368-0.453,0.73-0.92,1.084-1.402
		c0.354-0.482,0.698-0.949,1.03-1.402S84.396,16.668,84.637,16.306z M81.582,11.532c-0.24,0-0.481-0.038-0.723-0.113
		c-0.242-0.075-0.457-0.181-0.645-0.315c-0.19-0.137-0.339-0.295-0.453-0.476c-0.112-0.181-0.162-0.37-0.146-0.565
		c0.029-0.301,0.14-0.613,0.326-0.939c0.189-0.324,0.428-0.617,0.713-0.882c0.288-0.265,0.592-0.481,0.917-0.654
		c0.322-0.175,0.637-0.263,0.939-0.263c0.452,0,0.813,0.135,1.084,0.397s0.393,0.636,0.362,1.119
		c-0.029,0.241-0.108,0.517-0.237,0.827c-0.129,0.309-0.297,0.602-0.51,0.881c-0.21,0.279-0.455,0.514-0.733,0.701
		C82.198,11.439,81.898,11.532,81.582,11.532z"/>
	<path fill="#FFFFFF" d="M97.236,16.306c0.12-0.181,0.219-0.249,0.293-0.203c0.077,0.044,0.133,0.136,0.17,0.271
		c0.039,0.137,0.054,0.283,0.046,0.44c-0.007,0.159-0.026,0.261-0.056,0.308c-0.152,0.241-0.365,0.567-0.646,0.982
		c-0.279,0.416-0.601,0.871-0.961,1.369c-0.362,0.499-0.75,1.007-1.165,1.527c-0.415,0.52-0.837,1-1.268,1.436
		c-0.43,0.439-0.852,0.8-1.267,1.087c-0.414,0.286-0.795,0.45-1.143,0.499h-0.135c-0.12,0-0.332-0.024-0.634-0.068
		c-0.301-0.047-0.611-0.133-0.927-0.262c-0.316-0.128-0.589-0.313-0.815-0.554c-0.225-0.241-0.323-0.565-0.292-0.974
		c0.014-0.105,0.032-0.217,0.055-0.339c0.023-0.121,0.056-0.265,0.103-0.431c-0.271,0.348-0.54,0.678-0.803,0.984
		c-0.264,0.31-0.519,0.584-0.759,0.826c-0.241,0.242-0.465,0.434-0.668,0.577s-0.371,0.215-0.509,0.215
		c-0.301,0-0.647-0.068-1.039-0.203c-0.393-0.138-0.759-0.328-1.098-0.578c-0.34-0.249-0.619-0.546-0.838-0.893
		c-0.218-0.348-0.313-0.731-0.281-1.153c0.029-0.287,0.141-0.694,0.327-1.223c0.188-0.528,0.425-1.109,0.713-1.741
		c0.286-0.634,0.61-1.274,0.972-1.923c0.362-0.648,0.732-1.24,1.108-1.775c0.378-0.536,0.748-0.974,1.109-1.313
		c0.361-0.339,0.692-0.507,0.994-0.507c0.407,0,0.786,0.063,1.132,0.191c0.346,0.127,0.668,0.291,0.961,0.486
		c0.294,0.195,0.559,0.41,0.791,0.645c0.234,0.234,0.436,0.457,0.601,0.666c0.302-0.707,0.468-1.175,0.498-1.401
		c0.015-0.271,0.158-0.398,0.43-0.386c0.271,0.016,0.557,0.115,0.859,0.295c0.302,0.182,0.573,0.403,0.813,0.669
		c0.242,0.263,0.356,0.507,0.341,0.733c-0.016,0.197-0.129,0.6-0.341,1.211c-0.21,0.609-0.46,1.3-0.746,2.069
		c-0.287,0.771-0.577,1.546-0.87,2.331c-0.295,0.784-0.531,1.44-0.713,1.967c-0.12,0.393-0.083,0.589,0.114,0.589
		c0.166,0,0.38-0.11,0.644-0.328c0.264-0.219,0.562-0.509,0.894-0.871s0.682-0.769,1.052-1.222s0.732-0.92,1.087-1.402
		c0.354-0.482,0.692-0.949,1.018-1.402C96.711,17.074,96.995,16.668,97.236,16.306z M85.902,22.616c0.137,0,0.322-0.112,0.557-0.339
		c0.232-0.227,0.497-0.523,0.791-0.893c0.294-0.371,0.6-0.781,0.916-1.232c0.314-0.453,0.625-0.906,0.928-1.358
		c0.3-0.452,0.58-0.882,0.836-1.29c0.256-0.407,0.467-0.744,0.635-1.018c0.074-0.211,0.152-0.411,0.236-0.599
		c0.082-0.188,0.163-0.374,0.238-0.556c-0.183-0.089-0.39-0.173-0.622-0.248c-0.234-0.074-0.503-0.112-0.804-0.112
		c-0.211,0-0.475,0.188-0.792,0.565c-0.315,0.376-0.642,0.85-0.972,1.414c-0.332,0.564-0.65,1.18-0.951,1.843
		c-0.302,0.665-0.555,1.278-0.758,1.844s-0.335,1.037-0.396,1.413C85.684,22.428,85.737,22.616,85.902,22.616z"/>
	<path fill="#FFFFFF" d="M105.085,16.283c0.12-0.181,0.224-0.261,0.307-0.238c0.083,0.023,0.146,0.093,0.192,0.205
		c0.046,0.112,0.067,0.241,0.067,0.384c0,0.144-0.016,0.237-0.046,0.282c-0.286,0.468-0.737,0.906-1.355,1.311
		c-0.619,0.41-1.291,0.809-2.016,1.202c0.093,0.315,0.122,0.671,0.093,1.062c-0.046,0.453-0.205,0.924-0.477,1.414
		s-0.614,0.939-1.029,1.346s-0.882,0.744-1.401,1.007c-0.521,0.263-1.052,0.396-1.595,0.396c-0.181,0-0.357-0.058-0.532-0.171
		c-0.174-0.113-0.328-0.256-0.464-0.429s-0.245-0.366-0.328-0.577s-0.116-0.416-0.102-0.611c0.017-0.271,0.106-0.531,0.271-0.779
		c0.167-0.25,0.381-0.486,0.646-0.713c0.263-0.227,0.569-0.444,0.917-0.656c0.345-0.211,0.717-0.422,1.107-0.633
		c-0.046-0.648-0.191-1.246-0.44-1.789c-0.249-0.542-0.547-1.068-0.894-1.582c-0.076,0.091-0.144,0.176-0.203,0.26
		c-0.063,0.083-0.113,0.162-0.158,0.237c-0.046,0.075-0.111,0.091-0.193,0.046c-0.083-0.046-0.155-0.118-0.215-0.215
		c-0.061-0.098-0.102-0.199-0.124-0.306c-0.022-0.104-0.012-0.194,0.034-0.271c0.045-0.076,0.098-0.151,0.159-0.227
		c0.06-0.075,0.12-0.158,0.181-0.248c-0.423-0.635-0.789-1.297-1.098-1.992c-0.31-0.693-0.428-1.484-0.352-2.375
		c0.046-0.588,0.23-1.131,0.554-1.629c0.325-0.498,0.698-0.932,1.121-1.301c0.422-0.369,0.855-0.656,1.3-0.859
		c0.445-0.203,0.816-0.305,1.12-0.305c0.332,0,0.607,0.17,0.825,0.508c0.219,0.341,0.291,0.916,0.215,1.73
		c-0.061,0.725-0.256,1.486-0.588,2.285c-0.332,0.8-0.702,1.561-1.109,2.284c0.407,0.708,0.864,1.426,1.369,2.149
		c0.506,0.724,0.895,1.457,1.166,2.193c0.632-0.346,1.225-0.711,1.775-1.096C104.335,17.2,104.77,16.766,105.085,16.283z
		 M97.825,23.318c0.21,0,0.399-0.078,0.565-0.236c0.166-0.159,0.313-0.355,0.441-0.591c0.127-0.231,0.229-0.485,0.305-0.757
		c0.076-0.271,0.128-0.513,0.157-0.724c-0.482,0.303-0.882,0.606-1.199,0.917c-0.315,0.308-0.489,0.638-0.518,0.982
		c-0.017,0.107,0.001,0.199,0.055,0.283C97.686,23.276,97.749,23.318,97.825,23.318z M98.639,11.532
		c-0.03,0.333-0.008,0.661,0.068,0.985c0.074,0.324,0.189,0.652,0.339,0.983c0.347-0.633,0.655-1.278,0.927-1.935
		c0.273-0.656,0.43-1.271,0.477-1.844c0.046-0.482,0.029-0.807-0.047-0.971c-0.074-0.167-0.195-0.25-0.361-0.25
		c-0.135,0-0.278,0.104-0.431,0.314c-0.149,0.213-0.293,0.474-0.429,0.781c-0.136,0.312-0.252,0.637-0.35,0.984
		C98.732,10.931,98.668,11.246,98.639,11.532z"/>
</g>
</svg>
