<?xml version="1.0" encoding="utf-8"?>
<!-- Generator: Adobe Illustrator 16.0.0, SVG Export Plug-In . SVG Version: 6.00 Build 0)  -->
<!DOCTYPE svg PUBLIC "-//W3C//DTD SVG 1.1//EN" "http://www.w3.org/Graphics/SVG/1.1/DTD/svg11.dtd">
<svg version="1.1" id="Capa_1" xmlns="http://www.w3.org/2000/svg" xmlns:xlink="http://www.w3.org/1999/xlink" x="0px" y="0px"
	 width="208px" height="176px" viewBox="0 0 208 176" enable-background="new 0 0 208 176" xml:space="preserve">
<g>
	<g opacity="0.5">
		<g>
			<defs>
				<rect id="SVGID_1_" x="16.5" y="23.718" width="154.889" height="133.83"/>
			</defs>
			<clipPath id="SVGID_2_">
				<use xlink:href="#SVGID_1_"  overflow="visible"/>
			</clipPath>
			<g clip-path="url(#SVGID_2_)">
				<defs>
					<path id="SVGID_3_" d="M47.33,57.678c-11.459,6.5-26.709,11.279-30.25,28.09c-0.546,2.75-0.727,5.57-0.456,8.45
						c0.545,5.77,2.917,11.79,7.875,17.989c1.544,2.171,3.214,4.2,4.994,6.101c1.778,1.899,3.669,3.66,5.655,5.26
						c20.241,16.16,42.56,25.84,64.718,32.65c2.154,0.52,4.272,0.91,6.353,1.13c10.398,1.08,19.827-2.15,26.094-12.17
						c7.609-12.26,12.361-29.51,26.883-32.01c2.02-0.67,3.834-1.44,5.41-2.381c2.365-1.409,4.197-3.209,5.418-5.56
						c6.35-22.05-10.524-48.3-28.401-58.74c-9.662-5.68-19.103-12.979-28.696-17.88c-2.399-1.229-4.809-2.3-7.235-3.16
						c-22.003-7.68-37.701,11.76-51.016,26.79C52.208,54.268,49.736,56.078,47.33,57.678"/>
				</defs>
				<clipPath id="SVGID_4_">
					<use xlink:href="#SVGID_3_"  overflow="visible"/>
				</clipPath>
				
					<linearGradient id="SVGID_5_" gradientUnits="userSpaceOnUse" x1="-542.2358" y1="2266.5723" x2="-541.2358" y2="2266.5723" gradientTransform="matrix(154.779 -1.1931 -21.1021 -182.872 131772.2969 413934.2188)">
					<stop  offset="0" style="stop-color:#FFFFFF"/>
					<stop  offset="0.0897" style="stop-color:#DEF6F0"/>
					<stop  offset="0.1991" style="stop-color:#BCEDE1"/>
					<stop  offset="0.3169" style="stop-color:#A1E5D5"/>
					<stop  offset="0.444" style="stop-color:#8CDFCB"/>
					<stop  offset="0.5847" style="stop-color:#7DDBC4"/>
					<stop  offset="0.75" style="stop-color:#74D9C0"/>
					<stop  offset="1" style="stop-color:#71D8BF"/>
				</linearGradient>
				<polygon clip-path="url(#SVGID_4_)" fill="url(#SVGID_5_)" points="0.136,17.893 176.23,16.535 192.59,158.303 16.495,159.66 
									"/>
			</g>
		</g>
	</g>
	<path fill="#19B9DF" d="M129.031,44.947H75.094c-3.035,0-5.503,2.471-5.503,5.504v18.712c0,1.013,0.822,1.834,1.835,1.834
		c1.013,0,1.834-0.821,1.834-1.834V50.452c0-1.011,0.823-1.835,1.834-1.835h53.938c1.013,0,1.835,0.824,1.835,1.835v68.248
		c0,1.012-0.822,1.834-1.835,1.834H75.094c-1.011,0-1.834-0.822-1.834-1.834V84.636c0-1.013-0.821-1.834-1.834-1.834
		c-1.013,0-1.835,0.821-1.835,1.834v34.063c0,3.034,2.468,5.502,5.503,5.502h53.938c3.033,0,5.505-2.468,5.505-5.502V50.452
		C134.536,47.418,132.064,44.947,129.031,44.947"/>
	<path fill="#19B9DF" d="M72.723,76.078c-0.343-0.342-0.815-0.535-1.297-0.535c-0.483,0-0.954,0.193-1.299,0.535
		c-0.341,0.343-0.536,0.815-0.536,1.297c0,0.483,0.196,0.956,0.536,1.299c0.345,0.342,0.816,0.538,1.299,0.538
		c0.482,0,0.954-0.196,1.297-0.538c0.342-0.341,0.538-0.815,0.538-1.299C73.261,76.893,73.065,76.421,72.723,76.078"/>
	<path fill="#19B9DF" d="M80.072,128.418c-0.341-0.342-0.813-0.538-1.298-0.538c-0.481,0-0.955,0.196-1.297,0.538
		c-0.342,0.342-0.538,0.813-0.538,1.297c0,0.484,0.196,0.957,0.538,1.298c0.342,0.343,0.816,0.537,1.297,0.537
		c0.485,0,0.957-0.194,1.298-0.537c0.341-0.341,0.537-0.813,0.537-1.298C80.609,129.231,80.413,128.76,80.072,128.418"/>
	<path fill="#19B9DF" d="M140.051,52.298c-1.014,0-1.834,0.822-1.834,1.835v71.915c0,1.012-0.822,1.835-1.835,1.835H86.114
		c-1.013,0-1.834,0.82-1.834,1.835c0,1.013,0.821,1.833,1.834,1.833h50.268c3.034,0,5.504-2.468,5.504-5.503V54.133
		C141.886,53.12,141.064,52.298,140.051,52.298"/>
	<path fill="#19B9DF" d="M147.4,59.628c-1.015,0-1.836,0.821-1.836,1.835v71.915c0,1.012-0.821,1.835-1.834,1.835H86.125
		c-1.013,0-1.835,0.822-1.835,1.834c0,1.015,0.822,1.835,1.835,1.835h57.605c3.035,0,5.504-2.469,5.504-5.504V61.463
		C149.234,60.449,148.413,59.628,147.4,59.628"/>
	<path fill="#19B9DF" d="M99.312,58.518H81.7c-1.014,0-1.835,0.83-1.835,1.84v17.61c0,1.01,0.821,1.84,1.835,1.84h17.612
		c1.011,0,1.834-0.83,1.834-1.84v-17.61C101.146,59.348,100.323,58.518,99.312,58.518 M97.477,76.138H83.535V62.194h13.942V76.138z"
		/>
	<path fill="#19B9DF" d="M93.408,88.138c-0.717-0.717-1.878-0.717-2.594,0l-4.878,4.877l-2.267-2.269
		c-0.715-0.717-1.878-0.715-2.594,0c-0.718,0.717-0.718,1.878,0,2.595l3.564,3.565c0.344,0.344,0.811,0.537,1.297,0.537
		c0.488,0,0.952-0.193,1.297-0.537l6.175-6.174C94.124,90.015,94.124,88.854,93.408,88.138"/>
	<path fill="#19B9DF" d="M123.466,90.628h-21.402c-1.014,0-1.835,0.821-1.835,1.834c0,1.014,0.821,1.835,1.835,1.835h21.402
		c1.013,0,1.834-0.821,1.834-1.835C125.3,91.449,124.479,90.628,123.466,90.628"/>
	<path fill="#19B9DF" d="M122.427,58.518h-12.842c-1.012,0-1.834,0.822-1.834,1.835s0.822,1.834,1.834,1.834h12.842
		c1.012,0,1.835-0.821,1.835-1.834S123.439,58.518,122.427,58.518"/>
	<path fill="#19B9DF" d="M122.427,67.328h-12.842c-1.012,0-1.834,0.82-1.834,1.835c0,1.012,0.822,1.833,1.834,1.833h12.842
		c1.012,0,1.835-0.821,1.835-1.833C124.262,68.148,123.439,67.328,122.427,67.328"/>
	<path fill="#19B9DF" d="M122.427,76.138h-12.842c-1.012,0-1.834,0.822-1.834,1.834c0,1.015,0.822,1.835,1.834,1.835h12.842
		c1.012,0,1.835-0.82,1.835-1.835C124.262,76.96,123.439,76.138,122.427,76.138"/>
	<path fill="#19B9DF" d="M93.408,102.147c-0.717-0.716-1.878-0.716-2.594,0l-4.878,4.877l-2.267-2.268
		c-0.715-0.716-1.878-0.716-2.594,0c-0.718,0.717-0.718,1.879,0,2.594l3.564,3.565c0.344,0.345,0.811,0.539,1.297,0.539
		c0.488,0,0.952-0.194,1.297-0.539l6.175-6.174C94.124,104.024,94.124,102.863,93.408,102.147"/>
	<path fill="#19B9DF" d="M123.466,104.567h-21.402c-1.014,0-1.835,0.822-1.835,1.835s0.821,1.834,1.835,1.834h21.402
		c1.013,0,1.834-0.821,1.834-1.834S124.479,104.567,123.466,104.567"/>
</g>
</svg>
