<?xml version="1.0" encoding="utf-8"?>
<!-- Generator: Adobe Illustrator 16.0.0, SVG Export Plug-In . SVG Version: 6.00 Build 0)  -->
<!DOCTYPE svg PUBLIC "-//W3C//DTD SVG 1.1//EN" "http://www.w3.org/Graphics/SVG/1.1/DTD/svg11.dtd">
<svg version="1.1" id="Capa_1" xmlns="http://www.w3.org/2000/svg" xmlns:xlink="http://www.w3.org/1999/xlink" x="0px" y="0px"
	 width="208px" height="176px" viewBox="0 0 208 176" enable-background="new 0 0 208 176" xml:space="preserve">
<g>
	<g opacity="0.5">
		<g>
			<defs>
				<rect id="SVGID_1_" x="22.245" y="23.317" width="154.885" height="133.83"/>
			</defs>
			<clipPath id="SVGID_2_">
				<use xlink:href="#SVGID_1_"  overflow="visible"/>
			</clipPath>
			<g clip-path="url(#SVGID_2_)">
				<defs>
					<path id="SVGID_3_" d="M53.075,57.287c-11.459,6.49-26.709,11.28-30.25,28.091c-0.546,2.739-0.728,5.56-0.456,8.45
						c0.545,5.77,2.917,11.789,7.875,17.989c1.544,2.16,3.214,4.2,4.994,6.101c1.778,1.89,3.669,3.66,5.655,5.26
						c20.24,16.16,42.56,25.84,64.718,32.64c2.153,0.53,4.271,0.92,6.353,1.13c10.398,1.09,19.827-2.14,26.093-12.16
						c7.61-12.27,12.362-29.51,26.885-32.01c2.019-0.67,3.833-1.439,5.409-2.38c2.369-1.41,4.199-3.21,5.419-5.569
						c6.351-22.041-10.525-48.291-28.402-58.73c-9.662-5.69-19.104-12.98-28.696-17.88c-2.399-1.23-4.809-2.3-7.233-3.17
						c-22.004-7.67-37.702,11.77-51.018,26.8C57.953,53.878,55.481,55.688,53.075,57.287"/>
				</defs>
				<clipPath id="SVGID_4_">
					<use xlink:href="#SVGID_3_"  overflow="visible"/>
				</clipPath>
				
					<linearGradient id="SVGID_5_" gradientUnits="userSpaceOnUse" x1="-545.3203" y1="2267.5488" x2="-544.3199" y2="2267.5488" gradientTransform="matrix(154.779 -1.1931 -21.1021 -182.872 132275.9844 414108.8438)">
					<stop  offset="0" style="stop-color:#FFFFFF"/>
					<stop  offset="0.0897" style="stop-color:#DEF6F0"/>
					<stop  offset="0.1991" style="stop-color:#BCEDE1"/>
					<stop  offset="0.3169" style="stop-color:#A1E5D5"/>
					<stop  offset="0.444" style="stop-color:#8CDFCB"/>
					<stop  offset="0.5847" style="stop-color:#7DDBC4"/>
					<stop  offset="0.75" style="stop-color:#74D9C0"/>
					<stop  offset="1" style="stop-color:#71D8BF"/>
				</linearGradient>
				<polygon clip-path="url(#SVGID_4_)" fill="url(#SVGID_5_)" points="5.881,17.503 181.978,16.146 198.337,157.913 22.24,159.271 
									"/>
			</g>
		</g>
	</g>
	<path fill="#19B9DF" d="M66.08,114.067c-0.331-0.331-0.79-0.521-1.259-0.521c-0.468,0-0.927,0.189-1.257,0.521
		c-0.331,0.331-0.521,0.79-0.521,1.259c0,0.468,0.19,0.927,0.521,1.258c0.332,0.331,0.789,0.521,1.257,0.521
		c0.469,0,0.928-0.19,1.259-0.521c0.333-0.331,0.521-0.79,0.521-1.258C66.601,114.857,66.413,114.398,66.08,114.067"/>
	<path fill="#19B9DF" d="M133.484,73.283c0.903-1.235,1.439-2.758,1.439-4.402v-1.424c0-4.121-3.352-7.475-7.474-7.475
		c-4.121,0-7.475,3.354-7.475,7.475v1.424c0,1.645,0.535,3.167,1.44,4.402c-2.352,0.658-4.441,1.954-6.067,3.69v-0.619
		c0-6.034-4.08-11.129-9.625-12.681c0.904-1.235,1.439-2.757,1.439-4.402v-1.424c0-4.121-3.353-7.474-7.473-7.474
		c-4.121,0-7.475,3.353-7.475,7.474v1.424c0,1.646,0.535,3.167,1.439,4.402c-5.544,1.552-9.625,6.646-9.625,12.681v0.619
		c-1.625-1.736-3.713-3.032-6.066-3.69c0.904-1.235,1.44-2.758,1.44-4.402v-1.424c0-4.121-3.354-7.475-7.476-7.475
		s-7.474,3.354-7.474,7.475v1.424c0,1.645,0.536,3.167,1.441,4.402c-5.546,1.552-9.627,6.646-9.627,12.681v13.523
		c0,2.944,2.395,5.339,5.34,5.339h1.434v3.914c0,0.983,0.797,1.78,1.779,1.78c0.983,0,1.781-0.797,1.781-1.78V97.263h10.676v27.499
		c0,0.979-0.796,1.773-1.774,1.773c-0.978,0-1.774-0.795-1.774-1.773v-17.355c0-0.086-0.009-0.171-0.021-0.254v-1.592
		c0-0.982-0.797-1.779-1.779-1.779s-1.778,0.797-1.778,1.779v19.201c0,0.979-0.797,1.773-1.776,1.773
		c-0.978,0-1.774-0.795-1.774-1.773v-3.386c0-0.982-0.797-1.78-1.779-1.78s-1.779,0.798-1.779,1.78v3.386
		c0,2.941,2.393,5.333,5.333,5.333c1.369,0,2.619-0.519,3.565-1.369c0.944,0.851,2.193,1.369,3.563,1.369
		c2.941,0,5.333-2.392,5.333-5.333v-19.936h1.412c2.945,0,5.339-2.395,5.339-5.339V94.91c0.558,0.198,1.156,0.307,1.779,0.307h1.436
		v19.936c0,2.94,2.394,5.333,5.333,5.333c1.369,0,2.619-0.519,3.563-1.37c0.946,0.852,2.196,1.37,3.564,1.37
		c2.94,0,5.333-2.393,5.333-5.333V95.217h1.413c0.623,0,1.224-0.108,1.779-0.307v4.577c0,2.944,2.395,5.339,5.339,5.339h1.436
		v19.936c0,2.941,2.392,5.333,5.334,5.333c1.368,0,2.616-0.519,3.563-1.369c0.945,0.851,2.194,1.369,3.565,1.369
		c2.939,0,5.333-2.392,5.333-5.333v-5.332c0-0.982-0.797-1.78-1.78-1.78c-0.982,0-1.779,0.798-1.779,1.78v5.332
		c0,0.979-0.797,1.773-1.773,1.773c-0.98,0-1.776-0.795-1.776-1.773v-17.355c0-0.086-0.008-0.171-0.019-0.254v-1.592
		c0-0.982-0.798-1.779-1.781-1.779c-0.982,0-1.779,0.797-1.779,1.779v19.201c0,0.979-0.796,1.773-1.774,1.773
		c-0.978,0-1.774-0.795-1.774-1.773V97.263H132.8v10.233c0,0.982,0.797,1.779,1.779,1.779c0.983,0,1.78-0.797,1.78-1.779v-2.67
		h1.412c2.943,0,5.339-2.395,5.339-5.339V85.964C143.11,79.93,139.029,74.835,133.484,73.283 M68.015,67.457
		c0-2.159,1.757-3.915,3.914-3.915c2.159,0,3.916,1.756,3.916,3.915v1.424c0,2.158-1.757,3.914-3.916,3.914
		c-2.157,0-3.914-1.756-3.914-3.914V67.457z M84.03,89.879v9.608c0,0.981-0.798,1.779-1.78,1.779h-1.412V86.675
		c0-0.982-0.797-1.779-1.779-1.779c-0.983,0-1.779,0.797-1.779,1.779v7.03H66.604v-7.03c0-0.982-0.798-1.779-1.781-1.779
		c-0.982,0-1.779,0.797-1.779,1.779v14.592h-1.434c-0.982,0-1.781-0.798-1.781-1.779V85.964c0-5.3,4.312-9.609,9.611-9.609h4.981
		c5.299,0,9.609,4.31,9.609,9.609V89.879z M95.775,57.848c0-2.159,1.755-3.915,3.915-3.915c2.158,0,3.915,1.756,3.915,3.915v1.424
		c0,2.158-1.757,3.914-3.915,3.914c-2.16,0-3.915-1.756-3.915-3.914V57.848z M105.039,115.152c0,0.979-0.796,1.774-1.774,1.774
		s-1.773-0.796-1.773-1.774V97.798c0-0.087-0.008-0.171-0.021-0.254v-1.593c0-0.982-0.797-1.779-1.778-1.779
		c-0.983,0-1.78,0.797-1.78,1.779v19.201c0,0.979-0.797,1.774-1.774,1.774s-1.773-0.796-1.773-1.774V87.654h10.676V115.152z
		 M111.79,85.964v3.915c0,0.98-0.798,1.779-1.779,1.779h-1.413V77.066c0-0.982-0.796-1.779-1.777-1.779
		c-0.984,0-1.781,0.797-1.781,1.779v7.028H94.363v-7.028c0-0.982-0.797-1.779-1.78-1.779c-0.982,0-1.779,0.797-1.779,1.779v14.592
		h-1.436c-0.981,0-1.779-0.799-1.779-1.779v-3.915v-9.609c0-5.299,4.312-9.61,9.609-9.61h4.982c5.3,0,9.609,4.312,9.609,9.61V85.964
		z M123.534,67.457c0-2.159,1.757-3.915,3.916-3.915s3.914,1.756,3.914,3.915v1.424c0,2.158-1.755,3.914-3.914,3.914
		s-3.916-1.756-3.916-3.914V67.457z M139.551,99.487c0,0.981-0.798,1.779-1.779,1.779h-1.412V86.675c0-0.982-0.797-1.779-1.78-1.779
		c-0.982,0-1.779,0.797-1.779,1.779v7.03h-10.678v-7.03c0-0.982-0.797-1.779-1.779-1.779c-0.981,0-1.778,0.797-1.778,1.779v14.592
		h-1.436c-0.98,0-1.78-0.798-1.78-1.779v-9.608v-3.915c0-5.3,4.311-9.609,9.609-9.609h4.983c5.298,0,9.609,4.31,9.609,9.609V99.487z
		"/>
	<path fill="#19B9DF" d="M135.837,111.878c-0.332-0.333-0.789-0.521-1.258-0.521s-0.928,0.188-1.259,0.521
		c-0.331,0.331-0.521,0.789-0.521,1.258s0.19,0.928,0.521,1.258c0.331,0.331,0.79,0.522,1.259,0.522s0.926-0.191,1.258-0.522
		c0.332-0.33,0.521-0.789,0.521-1.258C136.358,112.666,136.169,112.209,135.837,111.878"/>
	<path fill="#19B9DF" d="M107.714,45.527l-6.244-2.62v-2.139c0-0.983-0.797-1.78-1.78-1.78c-0.982,0-1.779,0.797-1.779,1.78v2.148
		l-6.221,2.61c-1.788,0.75-2.944,2.488-2.944,4.426v2.382c0,0.981,0.797,1.779,1.78,1.779c0.982,0,1.779-0.797,1.779-1.779v-2.382
		c0-0.501,0.299-0.95,0.762-1.144l6.634-2.785l6.636,2.785c0.462,0.194,0.761,0.643,0.761,1.144v2.382
		c0,0.981,0.797,1.779,1.78,1.779c0.982,0,1.778-0.797,1.778-1.779v-2.382C110.655,48.015,109.501,46.277,107.714,45.527"/>
</g>
</svg>
