<?xml version="1.0" encoding="utf-8"?>
<!-- Generator: Adobe Illustrator 16.0.0, SVG Export Plug-In . SVG Version: 6.00 Build 0)  -->
<!DOCTYPE svg PUBLIC "-//W3C//DTD SVG 1.1//EN" "http://www.w3.org/Graphics/SVG/1.1/DTD/svg11.dtd">
<svg version="1.1" id="Capa_1" xmlns="http://www.w3.org/2000/svg" xmlns:xlink="http://www.w3.org/1999/xlink" x="0px" y="0px"
	 width="94.091px" height="98px" viewBox="0 0 94.091 98" enable-background="new 0 0 94.091 98" xml:space="preserve">
<path fill="#19B9DF" d="M62.971,36.077c-1.262-1.262-3.307-1.262-4.569,0L42.545,51.933l-6.854-6.854
	c-1.263-1.262-3.308-1.262-4.571-0.001c-1.261,1.262-1.261,3.309,0,4.571l9.14,9.139c0.607,0.605,1.428,0.947,2.285,0.947
	c0.858,0,1.679-0.342,2.285-0.947l18.141-18.141C64.233,39.385,64.233,37.339,62.971,36.077"/>
<path fill="#19B9DF" d="M60.258,17.767c-1.629-0.727-3.54,0.006-4.267,1.635c-0.728,1.631,0.005,3.541,1.635,4.268
	c9.37,4.18,15.426,13.508,15.426,23.766c0,14.338-11.667,26.004-26.006,26.004c-14.34,0-26.006-11.666-26.006-26.004
	c0-10.205,6.012-19.514,15.315-23.716c1.626-0.733,2.349-2.647,1.614-4.274c-0.734-1.627-2.649-2.35-4.274-1.615
	c-11.613,5.246-19.117,16.866-19.117,29.604c-0.001,17.904,14.565,32.469,32.468,32.469s32.468-14.564,32.468-32.467
	C79.514,34.629,71.956,22.983,60.258,17.767"/>
</svg>
