<?xml version="1.0" encoding="utf-8"?>
<!-- Generator: Adobe Illustrator 16.0.0, SVG Export Plug-In . SVG Version: 6.00 Build 0)  -->
<!DOCTYPE svg PUBLIC "-//W3C//DTD SVG 1.1//EN" "http://www.w3.org/Graphics/SVG/1.1/DTD/svg11.dtd">
<svg version="1.1" id="Capa_1" xmlns="http://www.w3.org/2000/svg" xmlns:xlink="http://www.w3.org/1999/xlink" x="0px" y="0px"
	 width="36.691px" height="32.374px" viewBox="0 0 36.691 32.374" enable-background="new 0 0 36.691 32.374" xml:space="preserve">
<g>
	<path fill="#FFFFFF" d="M24.304,13.17l-0.232,0.047l-1.164,0.092l-0.324,0.512l-0.232-0.092l-0.932-0.838l-0.139-0.419
		l-0.186-0.465l-0.604-0.512l-0.699-0.139v0.326l0.652,0.65l0.326,0.373l-0.373,0.186l-0.281-0.093l-0.463-0.187V12.24l-0.606-0.232
		l-0.186,0.837l-0.605,0.14l0.047,0.465l0.791,0.139l0.187-0.697l0.65,0.093l0.279,0.186h0.465l0.326,0.651l0.883,0.884
		l-0.045,0.325l-0.699-0.046l-1.209,0.604l-0.883,1.023l-0.093,0.466h-0.326l-0.604-0.279l-0.559,0.279l0.14,0.605l0.231-0.28h0.419
		l-0.046,0.559l0.371,0.093l0.373,0.419l0.605-0.187l0.65,0.093l0.791,0.187l0.371,0.045l0.654,0.745l1.256,0.745l-0.838,1.581
		l-0.885,0.419l-0.324,0.883l-1.256,0.838l-0.143,0.465c3.211-0.791,5.582-3.676,5.582-7.117
		C25.513,15.729,25.048,14.333,24.304,13.17"/>
	<path fill="#FFFFFF" d="M19.044,21.03l-0.512-0.978l0.466-1.022l-0.466-0.141l-0.558-0.557l-1.209-0.28l-0.42-0.836v0.511H16.16
		l-1.07-1.442v-1.163l-0.744-1.256l-1.209,0.232h-0.838l-0.371-0.278l0.511-0.419l-0.511,0.139c-0.652,1.07-1.023,2.326-1.023,3.676
		c0,4.046,3.256,7.302,7.303,7.302c0.325,0,0.604-0.047,0.93-0.047l-0.093-0.883c0,0,0.325-1.302,0.325-1.349
		C19.369,22.192,19.044,21.03,19.044,21.03"/>
	<path fill="#FFFFFF" d="M13.606,12.281l1.302-0.186l0.604-0.326l0.651,0.187l1.071-0.047l0.418-0.605l0.558,0.093l1.302-0.139
		l0.371-0.419l0.514-0.326l0.697,0.093l0.277-0.047c-0.928-0.464-2-0.697-3.116-0.697c-2.325,0.047-4.325,1.07-5.675,2.697
		L13.606,12.281z M18.536,10.653l0.745-0.419l0.464,0.279l-0.698,0.512l-0.65,0.046l-0.28-0.185L18.536,10.653z M16.304,10.7
		l0.325,0.139l0.419-0.139l0.233,0.418l-0.978,0.279l-0.466-0.279C15.838,11.071,16.304,10.793,16.304,10.7"/>
</g>
</svg>
